<svg width="229" height="23" viewBox="0 0 229 23" fill="none" xmlns="http://www.w3.org/2000/svg">
<defs>
<linearGradient id="cm-gradient" x1="0" y1="0" x2="229" y2="0" gradientUnits="userSpaceOnUse">
<stop offset="0%" stop-color="#171717"/>
<stop offset="55%" stop-color="#262626"/>
<stop offset="100%" stop-color="#525252"/>
</linearGradient>
</defs>
<path d="M33.2962 15.0675V5.43501H36.9528C37.5051 5.43501 37.9528 5.88272 37.9528 6.43501V22.2099H36.529C34.8462 22.2099 33.482 20.8457 33.482 19.1629H33.3071C32.9282 20.1458 32.2978 20.9358 31.4161 21.5328C30.5416 22.1298 29.474 22.4284 28.2133 22.4284C27.091 22.4284 26.1036 22.1735 25.2509 21.6639C24.3983 21.1542 23.7315 20.4298 23.2506 19.4906C22.7769 18.5513 22.5364 17.4265 22.5291 16.1159V5.43501H26.1857C26.738 5.43501 27.1857 5.88272 27.1857 6.43501V15.2859C27.193 16.2761 27.459 17.0588 27.9837 17.634C28.5084 18.2091 29.2116 18.4967 30.0934 18.4967C30.6545 18.4967 31.1792 18.3693 31.6675 18.1145C32.1557 17.8524 32.5492 17.4665 32.848 16.9569C33.1541 16.4472 33.3035 15.8174 33.2962 15.0675Z" fill="url(#cm-gradient)"/>
<path d="M54.724 10.2185L51.5597 10.413C50.9301 10.4517 50.3925 9.98408 49.9909 9.49769C49.7504 9.19918 49.4334 8.96255 49.0399 8.78781C48.6536 8.60579 48.1909 8.51478 47.6516 8.51478C46.9302 8.51478 46.3217 8.66768 45.8261 8.97347C45.3306 9.27198 45.0828 9.67242 45.0828 10.1748C45.0828 10.5752 45.2432 10.9138 45.5638 11.1905C45.8844 11.4671 46.4346 11.6892 47.2144 11.8567L50.2532 12.4682C51.8856 12.8032 53.1026 13.3419 53.9042 14.0846C54.7058 14.8272 55.1066 15.8028 55.1066 17.0115C55.1066 18.1109 54.7823 19.0756 54.1337 19.9056C53.4925 20.7356 52.6107 21.3836 51.4884 21.8495C50.3735 22.3082 49.0872 22.5376 47.6298 22.5376C45.4071 22.5376 43.6363 22.0752 42.3173 21.1506C41.0055 20.2186 40.2367 18.9518 40.0108 17.35L42.6948 17.2092C43.7848 17.152 44.6901 18.0526 45.5966 18.6606C46.1286 19.01 46.8099 19.1848 47.6407 19.1848C48.4569 19.1848 49.1127 19.0282 49.6083 18.7152C50.1111 18.3948 50.3662 17.9834 50.3735 17.4811C50.3662 17.0588 50.1876 16.7129 49.8378 16.4436C49.488 16.1669 48.9488 15.9557 48.22 15.8101L45.3124 15.2313C43.6727 14.9037 42.4521 14.3358 41.6505 13.5276C40.8562 12.7194 40.459 11.6892 40.459 10.4369C40.459 9.35935 40.7505 8.43105 41.3335 7.65201C41.9238 6.87296 42.7509 6.2723 43.8148 5.85001C44.8861 5.42773 46.1395 5.21659 47.5751 5.21659C49.6957 5.21659 51.3645 5.66435 52.5815 6.55989C53.8058 7.45543 54.52 8.67496 54.724 10.2185Z" fill="url(#cm-gradient)"/>
<path d="M66.0461 5.43501V8.92979H55.9348V5.43501H66.0461ZM58.2304 6.07265C58.2304 3.50086 60.3152 1.41602 62.887 1.41602V17.0551C62.887 17.4847 62.9526 17.8196 63.0838 18.0599C63.2149 18.2929 63.3971 18.4567 63.6303 18.5513C63.8708 18.646 64.1477 18.6933 64.4611 18.6933C64.6797 18.6933 64.8983 18.6751 65.1169 18.6387C65.3356 18.595 65.5032 18.5623 65.6198 18.5404L66.3521 22.0024C66.119 22.0752 65.791 22.159 65.3683 22.2536C64.9457 22.3556 64.4319 22.4174 63.8271 22.4393C62.7048 22.483 61.721 22.3337 60.8757 21.9915C60.0376 21.6493 59.3854 21.1178 58.919 20.397C58.4526 19.6762 58.2231 18.7661 58.2304 17.6667V6.07265Z" fill="url(#cm-gradient)"/>
<path d="M75.5618 22.5376C73.8638 22.5376 72.3954 22.1772 71.1566 21.4564C69.925 20.7283 68.974 19.7163 68.3036 18.4203C67.6331 17.117 67.2979 15.6063 67.2979 13.888C67.2979 12.1552 67.6331 10.6408 68.3036 9.34479C68.974 8.04153 69.925 7.0295 71.1566 6.3087C72.3954 5.58063 73.8638 5.21659 75.5618 5.21659C77.2597 5.21659 78.7245 5.58063 79.9561 6.3087C81.1949 7.0295 82.1496 8.04153 82.82 9.34479C83.4904 10.6408 83.8257 12.1552 83.8257 13.888C83.8257 15.6063 83.4904 17.117 82.82 18.4203C82.1496 19.7163 81.1949 20.7283 79.9561 21.4564C78.7245 22.1772 77.2597 22.5376 75.5618 22.5376ZM75.5836 18.9336C76.3561 18.9336 77.001 18.7152 77.5184 18.2783C78.0358 17.8342 78.4257 17.2299 78.6881 16.4654C78.9577 15.7009 79.0925 14.8309 79.0925 13.8552C79.0925 12.8796 78.9577 12.0096 78.6881 11.2451C78.4257 10.4806 78.0358 9.87629 77.5184 9.43216C77.001 8.98803 76.3561 8.76597 75.5836 8.76597C74.8039 8.76597 74.148 8.98803 73.616 9.43216C73.0914 9.87629 72.6942 10.4806 72.4246 11.2451C72.1622 12.0096 72.031 12.8796 72.031 13.8552C72.031 14.8309 72.1622 15.7009 72.4246 16.4654C72.6942 17.2299 73.0914 17.8342 73.616 18.2783C74.148 18.7152 74.8039 18.9336 75.5836 18.9336Z" fill="url(#cm-gradient)"/>
<path d="M87.9301 22.2099C86.8255 22.2099 85.9301 21.3145 85.9301 20.2099V5.43501H87.4085C89.043 5.43501 90.3681 6.76008 90.3681 8.39465H90.5649C90.9147 7.41174 91.4977 6.63634 92.3138 6.06844C93.13 5.50054 94.1065 5.21659 95.2434 5.21659C96.3948 5.21659 97.3749 5.50418 98.1838 6.07936C98.9927 6.64726 99.532 7.41902 99.8016 8.39465H99.9765C100.319 7.43358 100.938 6.66546 101.835 6.09028C102.738 5.50782 103.806 5.21659 105.038 5.21659C106.604 5.21659 107.876 5.71532 108.853 6.71279C109.836 7.70297 110.328 9.10816 110.328 10.9284V22.2099H107.683C106.578 22.2099 105.683 21.3145 105.683 20.2099V11.8457C105.683 10.9138 105.435 10.2148 104.939 9.74887C104.444 9.2829 103.824 9.04992 103.081 9.04992C102.236 9.04992 101.576 9.31931 101.102 9.85809C100.629 10.3896 100.392 11.0922 100.392 11.9659V22.2099H97.8774C96.7728 22.2099 95.8774 21.3145 95.8774 20.2099V11.7474C95.8774 10.9247 95.6405 10.2694 95.1668 9.78164C94.7005 9.29382 94.0847 9.04992 93.3195 9.04992C92.8021 9.04992 92.3357 9.18097 91.9203 9.44308C91.5122 9.69791 91.1879 10.0583 90.9475 10.5243C90.707 10.983 90.5867 11.5217 90.5867 12.1406V22.2099H87.9301Z" fill="url(#cm-gradient)"/>
<path d="M120.735 22.5376C119.008 22.5376 117.521 22.1881 116.275 21.4891C115.036 20.7829 114.081 19.7854 113.411 18.4967C112.741 17.2008 112.405 15.6682 112.405 13.8989C112.405 12.1734 112.741 10.659 113.411 9.35571C114.081 8.05245 115.025 7.03678 116.242 6.3087C117.466 5.58063 118.902 5.21659 120.549 5.21659C121.657 5.21659 122.688 5.39496 123.642 5.75172C124.604 6.1012 125.442 6.62906 126.157 7.33529C126.878 8.04153 127.439 8.92979 127.84 10.0001C128.241 11.0631 128.441 12.3081 128.441 13.7351V15.0129H114.264V12.1297H124.058C124.058 11.4599 123.912 10.8665 123.621 10.3495C123.329 9.8326 122.925 9.42852 122.407 9.13729C121.897 8.83878 121.303 8.68952 120.625 8.68952C119.919 8.68952 119.292 8.85334 118.745 9.18097C118.206 9.50133 117.783 9.93453 117.477 10.4806C117.171 11.0194 117.015 11.62 117.007 12.2826V15.0238C117.007 15.8538 117.16 16.571 117.466 17.1753C117.78 17.7796 118.221 18.2455 118.789 18.5732C119.357 18.9008 120.032 19.0646 120.811 19.0646C121.329 19.0646 121.802 18.9918 122.232 18.8462C122.662 18.7006 123.03 18.4822 123.336 18.1909C123.642 17.8997 123.876 17.543 124.036 17.1207L128.343 17.4046C128.124 18.4385 127.676 19.3413 126.998 20.1131C126.328 20.8776 125.461 21.4746 124.397 21.9041C123.34 22.3264 122.119 22.5376 120.735 22.5376Z" fill="url(#cm-gradient)"/>
<path d="M135.213 22.2099C132.641 22.2099 130.557 20.1251 130.557 17.5533V5.43501H135.071V8.36188H135.246C135.552 7.32073 136.066 6.53441 136.787 6.00291C137.509 5.46413 138.368 5.43501 139.308 5.43501C139.541 5.43501 139.792 5.44957 140.062 5.47869C140.332 5.50782 140.568 5.54786 140.772 5.59883L140.744 9.48677C140.526 9.42124 140.223 9.36299 139.837 9.31203C139.451 9.26106 139.097 9.23558 138.777 9.23558C138.092 9.23558 137.48 9.38483 136.94 9.68335C136.408 9.97458 135.986 10.3823 135.672 10.9065C135.366 11.4307 135.213 12.035 135.213 12.7194V22.2099Z" fill="url(#cm-gradient)"/>
<path d="M144.228 22.2099C143.124 22.2099 142.228 21.3145 142.228 20.2099V5.43501H143.707C145.341 5.43501 146.666 6.76008 146.666 8.39465H146.863C147.213 7.41174 147.796 6.63634 148.612 6.06844C149.428 5.50054 150.405 5.21659 151.542 5.21659C152.693 5.21659 153.673 5.50418 154.482 6.07936C155.291 6.64726 155.83 7.41902 156.1 8.39465H156.275C156.617 7.43358 157.237 6.66546 158.133 6.09028C159.037 5.50782 160.104 5.21659 161.336 5.21659C162.903 5.21659 164.174 5.71532 165.151 6.71279C166.135 7.70297 166.627 9.10816 166.627 10.9284V22.2099H163.981C162.876 22.2099 161.981 21.3145 161.981 20.2099V11.8457C161.981 10.9138 161.733 10.2148 161.238 9.74887C160.742 9.2829 160.123 9.04992 159.379 9.04992C158.534 9.04992 157.874 9.31931 157.401 9.85809C156.927 10.3896 156.69 11.0922 156.69 11.9659V22.2099H154.176C153.071 22.2099 152.176 21.3145 152.176 20.2099V11.7474C152.176 10.9247 151.939 10.2694 151.465 9.78164C150.999 9.29382 150.383 9.04992 149.618 9.04992C149.1 9.04992 148.634 9.18097 148.219 9.44308C147.811 9.69791 147.486 10.0583 147.246 10.5243C147.005 10.983 146.885 11.5217 146.885 12.1406V22.2099H144.228Z" fill="url(#cm-gradient)"/>
<path d="M174.169 22.5267C173.098 22.5267 172.143 22.341 171.305 21.9697C170.467 21.5911 169.804 21.0341 169.316 20.2987C168.835 19.5561 168.594 18.6314 168.594 17.5248C168.594 16.5928 168.766 15.8101 169.108 15.1767C169.451 14.5433 169.917 14.0336 170.507 13.6477C171.098 13.2619 171.768 12.9706 172.519 12.774C173.276 12.5775 174.071 12.4391 174.902 12.359C175.878 12.2571 176.665 12.1625 177.263 12.0751C177.86 11.9804 178.294 11.8421 178.563 11.6601C178.833 11.4781 178.968 11.2087 178.968 10.8519V10.7864C178.968 10.0947 178.749 9.55957 178.312 9.18097C177.882 8.80237 177.27 8.61307 176.476 8.61307C175.638 8.61307 174.971 8.79873 174.475 9.17005C173.98 9.53409 173.652 9.99278 173.491 10.5461L169.185 10.1966C169.403 9.17733 169.833 8.29636 170.474 7.55372C171.116 6.8038 171.943 6.22861 172.956 5.82817C173.976 5.42045 175.157 5.21659 176.497 5.21659C177.43 5.21659 178.323 5.3258 179.176 5.54422C180.036 5.76264 180.797 6.1012 181.46 6.55989C182.131 7.01858 182.659 7.60832 183.045 8.32912C183.431 9.04264 183.625 9.89813 183.625 10.8956V22.2099H179.208V19.8837H179.077C178.808 20.4079 178.447 20.8703 177.995 21.2707C177.543 21.6639 177 21.9733 176.366 22.199C175.732 22.4174 175 22.5267 174.169 22.5267ZM175.503 19.3158C176.188 19.3158 176.793 19.1811 177.317 18.9117C177.842 18.6351 178.254 18.2638 178.553 17.7978C178.851 17.3318 179.001 16.804 179.001 16.2142V14.4341C178.855 14.5287 178.655 14.6161 178.399 14.6962C178.152 14.769 177.871 14.8381 177.558 14.9037C177.244 14.9619 176.931 15.0165 176.618 15.0675C176.304 15.1112 176.02 15.1512 175.765 15.1876C175.219 15.2677 174.741 15.3951 174.333 15.5699C173.925 15.7446 173.608 15.9812 173.382 16.2797C173.156 16.571 173.043 16.935 173.043 17.3719C173.043 18.0053 173.273 18.4895 173.732 18.8244C174.198 19.152 174.789 19.3158 175.503 19.3158Z" fill="url(#cm-gradient)"/>
<path d="M195.244 5.43501V8.92979H185.133V5.43501H195.244ZM187.429 6.07265C187.429 3.50086 189.514 1.41602 192.085 1.41602V17.0551C192.085 17.4847 192.151 17.8196 192.282 18.0599C192.413 18.2929 192.596 18.4567 192.829 18.5513C193.069 18.646 193.346 18.6933 193.659 18.6933C193.878 18.6933 194.097 18.6751 194.315 18.6387C194.534 18.595 194.702 18.5623 194.818 18.5404L195.551 22.0024C195.317 22.0752 194.989 22.159 194.567 22.2536C194.144 22.3556 193.63 22.4174 193.025 22.4393C191.903 22.483 190.919 22.3337 190.074 21.9915C189.236 21.6493 188.584 21.1178 188.117 20.397C187.651 19.6762 187.421 18.7661 187.429 17.6667V6.07265Z" fill="url(#cm-gradient)"/>
<path d="M204.826 22.5376C203.099 22.5376 201.612 22.1881 200.366 21.4891C199.127 20.7829 198.172 19.7854 197.502 18.4967C196.832 17.2008 196.496 15.6682 196.496 13.8989C196.496 12.1734 196.832 10.659 197.502 9.35571C198.172 8.05245 199.116 7.03678 200.333 6.3087C201.557 5.58063 202.993 5.21659 204.64 5.21659C205.748 5.21659 206.779 5.39496 207.733 5.75172C208.695 6.1012 209.533 6.62906 210.248 7.33529C210.969 8.04153 211.53 8.92979 211.931 10.0001C212.332 11.0631 212.532 12.3081 212.532 13.7351V15.0129H198.355V12.1297H208.149C208.149 11.4599 208.003 10.8665 207.712 10.3495C207.42 9.8326 207.016 9.42852 206.498 9.13729C205.988 8.83878 205.394 8.68952 204.716 8.68952C204.01 8.68952 203.383 8.85334 202.836 9.18097C202.297 9.50133 201.874 9.93453 201.568 10.4806C201.262 11.0194 201.106 11.62 201.098 12.2826V15.0238C201.098 15.8538 201.251 16.571 201.557 17.1753C201.871 17.7796 202.312 18.2455 202.88 18.5732C203.448 18.9008 204.123 19.0646 204.902 19.0646C205.42 19.0646 205.893 18.9918 206.323 18.8462C206.753 18.7006 207.121 18.4822 207.427 18.1909C207.733 17.8997 207.967 17.543 208.127 17.1207L212.434 17.4046C212.215 18.4385 211.767 19.3413 211.089 20.1131C210.419 20.8776 209.552 21.4746 208.488 21.9041C207.431 22.3264 206.21 22.5376 204.826 22.5376Z" fill="url(#cm-gradient)"/>
<path d="M228.617 10.2185L225.453 10.413C224.824 10.4517 224.286 9.98408 223.884 9.49769C223.644 9.19918 223.327 8.96255 222.933 8.78781C222.547 8.60579 222.084 8.51478 221.545 8.51478C220.824 8.51478 220.215 8.66768 219.72 8.97347C219.224 9.27198 218.976 9.67242 218.976 10.1748C218.976 10.5752 219.137 10.9138 219.457 11.1905C219.778 11.4671 220.328 11.6892 221.108 11.8567L224.147 12.4682C225.779 12.8032 226.996 13.3419 227.798 14.0846C228.599 14.8272 229 15.8028 229 17.0115C229 18.1109 228.676 19.0756 228.027 19.9056C227.386 20.7356 226.504 21.3836 225.382 21.8495C224.267 22.3082 222.981 22.5376 221.523 22.5376C219.3 22.5376 217.53 22.0752 216.211 21.1506C214.899 20.2186 214.13 18.9518 213.904 17.35L216.588 17.2092C217.678 17.152 218.583 18.0526 219.49 18.6606C220.022 19.01 220.703 19.1848 221.534 19.1848C222.35 19.1848 223.006 19.0282 223.502 18.7152C224.005 18.3948 224.26 17.9834 224.267 17.4811C224.26 17.0588 224.081 16.7129 223.731 16.4436C223.381 16.1669 222.842 15.9557 222.113 15.8101L219.206 15.2313C217.566 14.9037 216.345 14.3358 215.544 13.5276C214.75 12.7194 214.352 11.6892 214.352 10.4369C214.352 9.35935 214.644 8.43105 215.227 7.65201C215.817 6.87296 216.644 6.2723 217.708 5.85001C218.779 5.42773 220.033 5.21659 221.469 5.21659C223.589 5.21659 225.258 5.66435 226.475 6.55989C227.699 7.45543 228.413 8.67496 228.617 10.2185Z" fill="url(#cm-gradient)"/>
<path d="M20.3636 18.1043L16.7036 16.6866C15.8261 16.3468 14.7868 16.6485 14.014 17.1855C13.0363 17.8648 11.3565 18.7096 8.62853 19.2379C3.46512 20.2379 0.491577 14.5371 0.491577 14.5371C0.491577 14.5371 1.11812 20.6043 8.15913 22.6043C15.2001 24.6043 20.3636 18.1043 20.3636 18.1043Z" fill="url(#cm-gradient)"/>
<path d="M14.7466 0.537109C14.7466 0.537109 5.81213 1.60387 4.87333 8.60387C3.93453 15.6039 10.9755 18.1039 10.9755 18.1039C10.9755 18.1039 8.22345 19.5357 5.40707 18.5362C2.5907 17.5366 1.1181 14.6034 1.1181 14.6034C1.1181 14.6034 -2.16774 9.10387 2.52631 3.60387C7.22035 -1.89613 14.7466 0.537109 14.7466 0.537109Z" fill="url(#cm-gradient)"/>
<path d="M20.3601 5.10156L17.4607 6.51749C16.2614 7.1032 14.3969 5.47253 13.1153 5.09987C12.7101 4.98205 12.1834 4.9466 11.5023 5.0332C7.56991 5.5332 5.50543 7.60156 5.50543 7.60156C5.50543 7.60156 6.09528 3.8832 11.9939 1.63516C17.8925 -0.61289 20.3601 5.10156 20.3601 5.10156Z" fill="url(#cm-gradient)"/>
</svg>
