<svg width="1080" height="757" viewBox="0 0 1080 757" fill="none" xmlns="http://www.w3.org/2000/svg">
<mask id="mask0_10561_360" style="mask-type:luminance" maskUnits="userSpaceOnUse" x="0" y="0" width="1080" height="757">
<path d="M1079.5 0.5V756.25H0.5V0.5H1079.5Z" fill="white" stroke="white"/>
</mask>
<g mask="url(#mask0_10561_360)">
<path d="M-131.021 -23.6487C-96.7315 -60.9186 -34.4515 -62.9051 2.2685 -27.9054C40.6085 8.70236 46.9985 71.891 82.7285 111.337C117.018 149.174 171.198 157.12 220.248 152.958C269.298 148.796 317.628 134.701 366.768 137.255C415.908 139.809 468.828 164.404 487.278 213.214C503.208 255.497 489.618 302.794 481.698 347.443C473.868 392.091 475.488 446.482 510.318 472.874C551.268 503.995 603.108 477.225 647.748 474.577C723.528 470.225 799.578 507.022 841.428 574.373C884.178 643.048 887.418 737.358 849.528 808.776" stroke="url(#paint0_linear_10561_360)" stroke-width="2" stroke-miterlimit="10"/>
<path d="M-121.033 -30.5544C-86.2032 -66.2162 -24.6432 -67.4459 12.0768 -32.8246C42.0468 -4.63568 53.2968 39.2558 73.3668 76.0528C79.1268 86.5527 85.5168 96.485 93.2568 105.282C127.007 143.404 179.027 153.147 225.737 151.255C257.687 149.93 289.097 144.255 320.507 142.079C335.087 141.039 349.577 140.85 364.247 142.363C382.877 144.255 402.317 149.552 420.407 158.16C447.407 171.025 470.987 190.984 482.687 219.173C485.747 226.457 487.817 233.835 489.257 241.403C495.827 276.213 487.097 314.051 481.517 350.564C480.617 356.334 479.897 362.293 479.267 368.347C475.577 408.739 479.717 452.252 508.247 475.806C513.197 479.873 518.237 482.995 523.547 485.36C543.617 494.535 565.847 493.117 588.437 489.711C606.527 486.968 624.887 482.806 642.257 481.955C646.487 481.765 650.717 481.671 654.947 481.671C677.897 481.765 700.757 485.265 722.537 492.171C768.257 506.833 809.117 537.008 836.117 579.67C844.397 592.724 851.237 606.818 856.547 621.48C879.047 683.155 875.267 755.709 844.577 813.127" stroke="url(#paint1_linear_10561_360)" stroke-width="2" stroke-miterlimit="10"/>
<path d="M-110.953 -37.46C-75.6731 -71.4192 -14.8331 -71.9868 21.9769 -37.7438C52.0369 -9.93325 64.0069 33.2961 84.1669 69.9985C89.9269 80.4038 96.2269 90.3361 103.877 99.2279C136.997 137.728 187.037 149.173 231.407 149.552C261.737 149.741 291.347 145.863 320.777 145.106C334.457 144.728 348.047 145.201 361.907 147.282C379.457 149.93 397.907 155.984 415.637 164.971C442.007 178.497 465.947 197.795 478.367 224.943C481.607 231.943 483.947 239.132 485.567 246.416C493.307 280.091 486.287 317.172 481.517 353.591C480.797 359.361 480.077 365.32 479.627 371.374C476.477 411.766 479.537 454.806 506.537 478.833C511.127 482.995 515.987 486.211 521.027 488.765C540.107 498.603 561.527 498.224 583.577 495.86C601.307 493.873 619.667 490.184 637.037 489.427C641.267 489.238 645.497 489.143 649.727 489.143C672.587 489.238 695.357 492.36 717.137 499.076C762.767 513.076 803.807 542.873 830.987 585.156C839.357 598.115 846.197 612.021 851.597 626.683C874.367 688.074 870.677 760.533 839.807 817.668" stroke="url(#paint2_linear_10561_360)" stroke-width="2" stroke-miterlimit="10"/>
<path d="M-100.873 -44.3647C-65.0531 -76.6211 -5.02306 -76.432 31.8769 -42.662C62.0269 -15.1352 74.8069 27.3374 94.8769 63.8506C100.637 74.2559 106.937 84.1882 114.407 93.08C146.897 131.863 194.867 145.107 236.897 147.755C265.607 149.458 293.417 147.377 320.867 148.134C333.647 148.417 346.337 149.553 359.297 152.296C375.767 155.796 393.317 162.512 410.597 171.877C436.427 185.971 460.547 204.606 473.687 230.809C477.107 237.525 479.627 244.43 481.517 251.43C490.427 283.97 485.027 320.294 481.157 356.618C480.527 362.388 479.987 368.253 479.627 374.307C477.107 414.604 479.087 457.171 504.377 481.766C508.697 486.022 513.287 489.333 517.967 492.076C535.967 502.482 556.577 503.333 578.267 501.82C595.637 500.685 613.997 497.374 631.277 496.712C635.507 496.522 639.737 496.522 643.877 496.522C666.737 496.617 689.417 499.455 711.107 505.793C756.737 519.13 797.957 548.549 825.227 590.359C833.597 603.224 840.617 617.035 846.017 631.602C868.967 692.615 865.367 765.074 834.497 822.019" stroke="url(#paint3_linear_10561_360)" stroke-width="2" stroke-miterlimit="10"/>
<path d="M-90.791 -51.2704C-54.521 -81.8242 4.78898 -80.9728 41.869 -47.5812C72.109 -20.3382 85.609 21.3776 105.769 57.7962C111.529 68.2015 117.739 78.0393 125.119 87.0257C157.069 126.093 202.879 141.133 242.569 146.052C269.749 149.268 295.759 149.079 321.139 151.16C333.019 152.106 344.719 153.809 356.959 157.214C372.439 161.471 388.999 168.944 405.919 178.687C431.209 193.349 455.599 211.416 469.369 236.578C472.969 243.105 475.669 249.727 477.829 256.443C487.909 287.848 484.219 323.51 481.159 359.645C480.619 365.32 480.259 371.185 479.989 377.239C478.099 417.536 478.909 459.536 502.669 484.698C506.719 488.954 511.039 492.549 515.449 495.387C532.459 506.36 552.259 508.346 573.409 507.873C590.329 507.495 608.779 504.657 626.059 504.184C630.289 504.089 634.519 503.995 638.659 503.995C661.429 504.184 684.019 506.549 705.799 512.603C751.429 525.278 792.739 554.224 820.189 595.751C828.649 608.521 835.669 622.237 841.159 636.71C864.379 697.439 860.779 769.709 829.819 826.465" stroke="url(#paint4_linear_10561_360)" stroke-width="2" stroke-miterlimit="10"/>
<path d="M-80.7129 -58.1758C-43.9029 -87.1215 14.5971 -85.4188 51.7671 -52.5002C82.0971 -25.6356 96.4071 15.4181 116.567 51.6475C122.327 61.9583 128.537 71.796 135.737 80.877C167.057 120.323 210.887 137.16 248.237 144.255C273.797 149.079 298.007 150.593 321.497 154.187C332.477 155.795 343.277 158.16 354.617 162.228C369.017 167.336 384.587 175.471 401.147 185.592C425.807 200.822 450.467 218.322 465.047 242.443C468.827 248.686 471.797 255.024 474.227 261.457C485.477 291.727 483.497 326.632 481.247 362.672C480.887 368.347 480.617 374.212 480.347 380.172C479.087 420.374 478.817 461.901 500.957 487.536C504.737 491.887 508.697 495.576 512.927 498.603C528.947 510.143 547.847 513.265 568.637 513.738C585.197 514.116 603.647 511.752 620.927 511.373C625.157 511.279 629.297 511.279 633.527 511.279C656.207 511.468 678.797 513.549 700.487 519.224C746.027 531.238 787.517 559.805 815.237 600.953C823.787 613.629 830.807 627.251 836.387 641.629C859.877 702.074 856.277 774.249 825.227 830.722" stroke="url(#paint5_linear_10561_360)" stroke-width="2" stroke-miterlimit="10"/>
<path d="M-70.7246 -65.0803C-33.4646 -92.3233 24.3154 -89.9585 61.5754 -57.4182C92.0854 -30.8374 107.115 9.45956 127.275 45.5944C133.035 55.9051 139.155 65.7428 146.265 74.8238C176.955 114.553 218.715 133.188 253.725 142.458C277.665 148.891 299.985 152.201 321.585 157.12C331.665 159.485 341.565 162.418 352.005 167.053C365.325 173.012 379.995 181.809 396.105 192.404C420.225 208.296 445.065 225.133 460.365 248.214C464.325 254.174 467.475 260.322 470.175 266.471C482.595 295.606 482.325 329.849 480.975 365.605C480.795 371.281 480.525 377.051 480.435 383.01C479.715 423.118 478.365 464.172 498.885 490.374C502.395 494.82 506.085 498.604 510.045 501.82C525.075 514.023 543.165 518.279 563.415 519.698C579.615 520.833 597.975 518.941 615.255 518.752C619.485 518.658 623.625 518.658 627.765 518.752C650.355 518.941 672.855 520.644 694.545 526.036C740.085 537.387 781.755 565.576 809.565 606.346C818.115 618.927 825.315 632.454 830.895 646.738C854.565 706.805 851.055 778.98 819.915 835.168" stroke="url(#paint6_linear_10561_360)" stroke-width="2" stroke-miterlimit="10"/>
<path d="M-60.6445 -72.0805C-22.8445 -97.6208 34.2155 -94.4992 71.4755 -62.4319C102.075 -36.2295 117.825 3.4053 138.075 39.3509C143.835 49.567 149.955 59.4994 156.885 68.5804C187.035 108.688 226.635 129.026 259.395 140.566C281.715 148.512 302.235 153.62 321.855 160.053C331.035 163.08 340.035 166.674 349.665 171.971C361.905 178.687 375.585 188.241 391.335 199.214C414.915 215.674 440.025 231.944 455.955 253.984C460.095 259.66 463.515 265.525 466.395 271.484C480.075 299.484 481.425 332.97 480.885 368.632C480.795 374.213 480.705 380.078 480.705 385.942C480.615 426.05 478.185 466.442 497.085 493.306C500.325 497.847 503.745 501.725 507.435 505.13C521.385 517.901 538.665 523.292 558.555 525.657C574.395 527.549 592.755 526.13 610.035 526.036C614.265 526.036 618.405 526.036 622.545 526.036C645.135 526.225 667.545 527.644 689.145 532.752C734.685 543.441 776.445 571.251 804.435 611.643C813.075 624.035 820.275 637.562 826.035 651.751C849.975 711.534 846.465 783.614 815.235 839.519" stroke="url(#paint7_linear_10561_360)" stroke-width="2" stroke-miterlimit="10"/>
<path d="M-50.5625 -78.9866C-12.3125 -102.919 44.0275 -99.0404 81.4675 -67.3515C112.157 -41.4328 128.717 -2.55481 148.967 33.2016C154.727 43.4178 160.757 53.3501 167.507 62.5257C197.027 102.917 234.557 125.052 264.977 138.863C285.677 148.322 304.307 155.228 322.127 163.079C330.317 166.673 338.507 171.025 347.237 176.89C358.397 184.457 371.177 194.673 386.567 206.024C409.607 223.051 434.897 238.754 451.637 259.754C455.957 265.24 459.557 270.727 462.707 276.402C477.557 303.361 480.617 335.996 480.887 371.563C480.977 377.144 480.977 382.915 480.977 388.78C481.427 428.793 478.007 468.711 495.197 496.143C498.077 500.779 501.317 504.846 504.737 508.346C517.697 521.684 534.167 528.211 553.517 531.616C568.997 534.265 587.357 533.319 604.637 533.319C608.867 533.319 613.007 533.319 617.057 533.413C639.557 533.603 661.877 534.643 683.567 539.467C729.017 549.589 770.957 576.926 799.217 616.845C807.947 629.142 815.237 642.575 820.997 656.669C845.207 716.168 841.697 788.06 810.467 843.775" stroke="url(#paint8_linear_10561_360)" stroke-width="2" stroke-miterlimit="10"/>
<path d="M-40.4805 -85.8917C-1.69048 -108.121 53.8395 -103.486 91.3695 -72.2702C122.15 -46.7299 139.52 -8.51405 159.77 27.1478C165.53 37.3639 171.56 47.2017 178.13 56.4719C207.019 97.1472 242.479 121.079 270.649 137.16C289.819 148.133 306.469 156.836 322.399 166.106C329.689 170.363 336.979 175.282 344.809 181.903C354.889 190.322 366.679 201.2 381.709 212.93C404.119 230.524 429.769 245.659 447.139 265.524C451.639 270.727 455.509 276.024 458.839 281.416C474.949 307.24 479.539 339.213 480.709 374.591C480.889 380.172 480.979 385.847 481.159 391.807C482.239 431.82 477.649 471.171 493.309 499.171C495.919 503.9 498.799 508.062 502.039 511.752C514.009 525.657 529.669 533.319 548.479 537.765C563.599 541.265 581.959 540.697 599.239 540.886C603.379 540.886 607.609 540.981 611.659 540.981C634.069 541.265 656.389 541.927 677.989 546.373C723.439 555.832 765.559 582.697 793.909 622.332C802.639 634.534 810.019 647.872 815.869 661.872C840.349 720.993 836.839 792.884 805.519 848.316" stroke="url(#paint9_linear_10561_360)" stroke-width="2" stroke-miterlimit="10"/>
<path d="M-30.4922 -92.7972C8.7478 -113.324 63.5578 -108.027 101.178 -77.1893C132.048 -51.9327 150.138 -14.4736 170.478 20.9991C176.328 31.1206 182.178 41.0529 188.658 50.3231C217.008 91.3768 250.308 117.012 276.138 135.363C293.688 147.849 308.448 158.255 322.488 169.133C328.788 174.052 335.268 179.633 342.288 186.822C351.288 195.997 362.178 207.633 376.758 219.741C398.628 237.997 424.458 252.375 442.548 271.294C447.228 276.213 451.368 281.226 454.968 286.335C472.338 311.023 478.548 342.239 480.618 377.523C480.888 383.009 481.158 388.78 481.428 394.644C483.048 434.563 477.468 473.346 491.418 501.914C493.758 506.738 496.368 510.995 499.338 514.873C510.228 529.346 525.078 538.238 543.528 543.535C558.288 547.792 576.648 547.697 593.838 547.981C597.978 548.075 602.118 548.075 606.168 548.17C628.488 548.454 650.718 548.738 672.318 552.9C717.768 561.697 759.978 588.183 788.508 627.439C797.328 639.547 804.798 652.696 810.648 666.696C835.308 725.533 831.888 797.33 800.478 852.478" stroke="url(#paint10_linear_10561_360)" stroke-width="2" stroke-miterlimit="10"/>
<path d="M-20.4121 -99.7016C19.3679 -118.62 73.3679 -112.472 111.078 -82.1072C142.038 -57.229 160.938 -20.4321 181.278 14.946C187.128 25.0675 192.978 34.9053 199.278 44.27C226.998 85.6075 258.318 112.945 281.718 133.661C297.648 147.756 310.608 159.769 322.758 172.161C328.158 177.647 333.648 183.985 339.858 191.836C347.868 201.863 357.768 214.16 371.898 226.647C393.228 245.471 419.328 259.282 438.138 277.16C442.998 281.795 447.318 286.619 451.188 291.444C469.818 314.997 477.648 345.551 480.528 380.645C480.978 386.132 481.338 391.808 481.608 397.672C483.858 437.591 477.198 475.807 489.528 504.942C491.598 509.766 493.938 514.212 496.638 518.279C506.538 533.32 520.578 543.347 538.488 549.684C552.888 554.698 571.158 555.076 588.438 555.549C592.578 555.644 596.718 555.738 600.768 555.738C623.088 556.022 645.228 556.022 666.828 559.806C712.188 567.941 754.578 594.049 783.288 632.927C792.198 644.94 799.668 657.994 805.608 671.9C830.538 730.453 827.118 802.061 795.618 857.02" stroke="url(#paint11_linear_10561_360)" stroke-width="2" stroke-miterlimit="10"/>
<path d="M-10.332 -106.608C29.898 -123.824 83.178 -117.013 121.068 -87.027C152.208 -62.4327 171.828 -26.3925 192.168 8.79639C198.018 18.8233 203.778 28.7557 209.988 38.1204C237.078 79.7417 266.328 108.877 287.478 131.863C301.788 147.471 312.858 161.187 323.118 175.187C327.618 181.241 332.208 188.335 337.608 196.754C344.538 207.632 353.448 220.592 367.308 233.457C388.098 252.848 414.468 266.091 433.908 282.929C439.038 287.375 443.538 291.821 447.588 296.456C467.478 318.875 476.928 348.672 480.618 383.671C481.158 389.158 481.608 394.739 482.058 400.604C484.938 440.428 477.198 478.076 487.818 507.873C489.618 512.792 491.688 517.332 494.118 521.589C503.028 537.102 516.168 548.359 533.718 555.643C547.758 561.413 566.028 562.264 583.308 562.832C587.448 562.927 591.588 563.021 595.638 563.116C617.868 563.399 639.918 563.021 661.518 566.616C706.878 574.089 749.448 599.818 778.338 638.318C787.248 650.237 794.808 663.196 800.838 677.007C826.038 735.182 822.618 806.789 791.118 861.464" stroke="url(#paint12_linear_10561_360)" stroke-width="2" stroke-miterlimit="10"/>
<path d="M-0.251953 -113.513C40.518 -129.026 93.078 -121.459 130.968 -91.9457C162.198 -67.6351 182.538 -32.3516 202.968 2.64807C208.818 12.675 214.578 22.5128 220.608 31.9721C247.158 73.9718 274.248 104.809 293.058 130.066C305.838 147.187 314.928 162.512 323.298 178.119C326.898 184.836 330.588 192.592 335.088 201.673C340.938 213.403 348.948 227.024 362.358 240.268C382.518 260.227 409.158 272.902 429.318 288.7C434.628 292.862 439.308 297.118 443.628 301.375C464.778 322.564 475.758 351.699 480.348 386.51C481.068 391.901 481.608 397.577 482.148 403.347C485.658 443.077 476.838 480.252 485.838 510.617C487.368 515.63 489.078 520.265 491.238 524.711C499.158 540.792 511.488 553.278 528.498 561.508C542.088 568.035 560.448 569.359 577.638 570.116C581.778 570.305 585.918 570.4 589.878 570.4C612.018 570.684 634.068 570.021 655.578 573.238C700.938 580.048 743.598 605.4 772.668 643.521C781.668 655.345 789.318 668.21 795.348 682.02C820.818 739.912 817.488 811.425 785.808 865.816" stroke="url(#paint13_linear_10561_360)" stroke-width="2" stroke-miterlimit="10"/>
<path d="M9.73828 -120.419C50.9583 -134.229 102.798 -126 140.778 -96.8647C172.098 -72.9325 193.248 -38.3112 213.678 -3.4061C219.528 6.62083 225.198 16.4586 231.138 25.918C257.058 68.2014 282.078 100.836 298.638 128.363C309.798 146.998 317.178 163.93 323.568 181.241C326.268 188.43 329.058 197.038 332.658 206.687C337.428 219.268 344.448 233.646 357.498 247.173C377.118 267.794 404.028 279.713 424.818 294.564C430.308 298.443 435.258 302.416 439.758 306.483C462.168 326.537 474.768 355.01 480.168 389.631C480.978 395.023 481.698 400.604 482.328 406.374C486.378 446.103 476.568 482.617 483.858 513.549C485.028 518.657 486.558 523.387 488.448 528.022C495.378 544.67 506.898 558.292 523.458 567.467C536.688 574.846 555.048 576.548 572.238 577.4C576.378 577.589 580.518 577.683 584.478 577.778C606.528 578.156 628.488 577.021 650.088 579.954C695.358 586.102 738.198 610.98 767.448 648.723C776.538 660.358 784.188 673.223 790.308 686.939C815.958 744.547 812.718 815.965 780.948 870.073" stroke="url(#paint14_linear_10561_360)" stroke-width="2" stroke-miterlimit="10"/>
<path d="M19.8184 -127.324C61.5784 -139.526 112.608 -130.445 150.678 -101.784C182.088 -78.1351 204.048 -44.2706 224.478 -9.55469C230.328 0.377654 235.998 10.31 241.668 19.864C266.958 62.4311 289.998 96.7687 304.128 126.66C313.668 146.809 319.248 165.349 323.658 184.268C325.458 192.119 327.258 201.389 330.138 211.7C333.828 225.038 339.948 240.173 352.638 254.078C371.718 275.267 398.808 286.618 420.408 300.429C426.078 304.024 431.298 307.713 436.068 311.496C459.738 330.415 473.868 358.131 480.258 392.658C481.248 398.05 482.058 403.631 482.688 409.306C487.368 448.941 476.478 484.981 482.148 516.481C483.048 521.684 484.308 526.603 485.928 531.332C491.868 548.548 502.488 563.305 518.598 573.521C531.468 581.656 549.738 583.832 567.018 584.778C571.158 584.967 575.208 585.156 579.168 585.156C601.128 585.534 622.998 584.116 644.598 586.67C689.868 592.156 732.888 616.656 762.228 654.02C771.318 665.561 779.148 678.331 785.268 691.952C811.188 749.182 807.948 820.505 776.088 874.424" stroke="url(#paint15_linear_10561_360)" stroke-width="2" stroke-miterlimit="10"/>
<path d="M29.8965 -134.229C72.1065 -144.729 122.416 -134.986 160.666 -106.703C192.166 -83.4325 214.846 -50.2301 235.276 -15.6088C241.126 -5.67649 246.706 4.16127 252.286 13.8098C277.036 56.7554 297.916 92.7956 309.796 124.957C317.806 146.619 321.676 166.768 323.926 187.389C324.826 195.808 325.726 205.835 327.706 216.713C330.316 230.902 335.446 246.7 347.776 261.078C366.316 282.834 393.676 293.618 415.906 306.388C421.756 309.794 427.156 313.199 432.196 316.699C457.126 334.388 472.876 361.442 480.076 395.874C481.156 401.171 482.056 406.752 482.866 412.522C488.176 452.157 476.206 487.535 480.256 519.697C480.886 524.9 481.876 530.008 483.226 534.927C488.176 552.71 497.986 568.602 513.646 579.764C526.156 588.656 544.426 591.305 561.616 592.44C565.756 592.724 569.806 592.818 573.766 592.913C595.726 593.291 617.506 591.494 639.016 593.764C684.286 598.588 727.396 622.71 757.006 659.696C766.186 671.142 774.016 683.817 780.226 697.344C806.416 754.29 803.176 825.519 771.226 879.153" stroke="url(#paint16_linear_10561_360)" stroke-width="2" stroke-miterlimit="10"/>
<path d="M39.9785 -141.134C82.7285 -149.931 132.229 -139.432 170.569 -111.621C202.248 -88.6347 225.648 -56.189 246.078 -21.7569C251.928 -11.9191 257.508 -1.98679 262.908 7.66178C287.028 50.8911 305.838 88.7286 315.378 123.161C321.768 146.336 323.928 168.187 324.108 190.322C324.198 199.309 324.108 210.092 325.278 221.633C326.808 236.673 331.038 253.133 342.918 267.889C360.828 290.213 388.548 300.429 411.408 312.159C417.438 315.281 423.108 318.402 428.328 321.713C454.608 338.267 471.888 364.659 479.898 398.902C481.158 404.199 482.148 409.685 483.048 415.455C489.078 454.996 475.938 489.901 478.278 522.63C478.638 527.927 479.358 533.13 480.438 538.238C484.398 556.589 493.308 573.711 508.518 585.819C520.668 595.467 538.938 598.589 556.128 599.819C560.268 600.102 564.318 600.292 568.278 600.292C590.148 600.67 611.838 598.589 633.438 600.575C678.618 604.738 721.908 628.481 751.698 665.088C760.968 676.44 768.888 689.021 775.098 702.453C801.558 759.02 798.318 830.249 766.368 883.6" stroke="url(#paint17_linear_10561_360)" stroke-width="2" stroke-miterlimit="10"/>
<path d="M50.0566 -148.04C93.2566 -155.229 142.127 -143.972 180.467 -116.54C212.237 -93.932 236.447 -62.1485 256.877 -27.811C262.727 -17.9733 268.217 -8.13553 273.527 1.60762C297.017 45.2153 313.847 84.6609 320.957 121.458C325.727 146.147 326.267 169.701 324.377 193.444C323.657 202.998 322.487 214.538 322.847 226.646C323.297 242.538 326.627 259.659 338.057 274.794C355.427 297.781 383.327 307.24 406.997 318.024C413.207 320.861 419.147 323.699 424.547 326.726C452.087 342.05 470.897 367.78 479.807 401.928C481.157 407.226 482.327 412.712 483.227 418.388C489.797 457.833 475.667 492.171 476.387 525.468C476.477 530.86 476.927 536.157 477.737 541.359C480.707 560.278 488.807 578.535 503.567 591.589C515.357 601.994 533.627 605.589 550.817 607.008C554.957 607.291 559.007 607.48 562.877 607.575C584.657 608.048 606.347 605.494 627.857 607.197C673.037 610.697 716.507 634.061 746.387 670.291C755.657 681.547 763.667 693.939 769.967 707.371C796.607 763.655 793.457 834.789 761.417 887.856" stroke="url(#paint18_linear_10561_360)" stroke-width="2" stroke-miterlimit="10"/>
<path d="M60.0469 -155.04C103.787 -160.527 151.847 -148.608 190.277 -121.554C222.137 -99.2298 247.067 -68.203 267.587 -34.0547C273.527 -24.2169 278.927 -14.3792 284.057 -4.63602C307.007 39.2555 321.677 80.4983 326.537 119.566C329.777 145.768 328.517 171.025 324.557 196.281C322.937 206.497 320.867 218.7 320.327 231.47C319.607 248.213 322.037 265.997 333.197 281.51C350.027 305.064 378.197 313.956 402.497 323.699C408.887 326.253 415.007 328.902 420.677 331.645C449.477 345.739 469.817 370.901 479.627 404.766C481.157 409.968 482.417 415.455 483.407 421.13C490.607 460.576 475.487 494.346 474.407 528.211C474.227 533.697 474.407 539.089 474.947 544.481C477.017 563.872 484.217 583.359 498.437 597.453C509.867 608.71 528.137 612.777 545.237 614.196C549.377 614.575 553.427 614.764 557.297 614.858C578.987 615.331 600.587 612.494 622.097 613.818C667.277 616.656 710.837 639.547 740.987 675.398C750.347 686.561 758.357 698.858 764.837 712.195C791.747 768.195 788.597 839.14 756.467 892.018" stroke="url(#paint19_linear_10561_360)" stroke-width="2" stroke-miterlimit="10"/>
<path d="M70.127 -161.945C114.317 -165.729 161.657 -153.053 200.267 -126.473C232.217 -104.527 257.957 -74.1623 278.477 -40.2031C284.417 -30.46 289.727 -20.6222 294.767 -10.7844C317.087 33.3908 329.867 76.431 332.207 117.768C333.917 145.484 330.947 172.538 324.827 199.214C322.397 209.997 319.337 222.957 317.987 236.294C316.187 253.794 317.717 272.335 328.427 288.226C344.717 312.348 373.157 320.577 398.087 329.375C404.747 331.645 411.047 334.01 416.897 336.469C446.957 349.334 468.917 373.834 479.627 407.604C481.247 412.806 482.597 418.198 483.767 423.874C491.597 463.225 475.397 496.427 472.697 530.954C472.247 536.535 472.067 542.021 472.427 547.602C473.507 567.562 479.807 588.278 493.667 603.224C504.737 615.237 522.917 619.777 540.107 621.386C544.157 621.764 548.207 621.953 552.077 622.048C573.767 622.521 595.277 619.304 616.787 620.345C661.877 622.615 705.617 645.034 735.947 680.507C745.397 691.574 753.497 703.777 759.977 717.02C787.157 772.641 784.007 843.586 751.787 896.18" stroke="url(#paint20_linear_10561_360)" stroke-width="2" stroke-miterlimit="10"/>
<path d="M80.209 -168.85C124.939 -170.931 171.469 -157.499 210.169 -131.391C242.209 -109.729 268.759 -80.1209 289.279 -46.2563C295.219 -36.5131 300.529 -26.6754 305.389 -16.8376C327.079 27.716 337.789 72.4589 337.879 116.067C337.969 145.296 333.289 174.053 325.189 202.336C321.859 213.782 317.809 227.403 315.649 241.403C312.769 259.755 313.309 278.957 323.659 295.227C339.319 319.916 368.029 327.578 393.769 335.335C400.609 337.416 407.179 339.402 413.299 341.673C444.709 353.308 468.199 377.24 479.719 410.821C481.519 416.023 482.959 421.415 484.129 426.996C492.589 466.347 475.399 498.982 470.899 534.076C470.179 539.752 469.729 545.333 469.819 551.103C469.909 571.63 475.399 593.481 488.719 609.468C499.339 622.238 517.609 627.251 534.799 628.954C538.849 629.332 542.899 629.616 546.769 629.711C568.369 630.184 589.789 626.684 611.299 627.346C656.389 628.954 700.309 650.994 730.729 686.089C740.179 696.967 748.369 709.169 754.939 722.318C782.299 777.655 779.239 848.506 747.019 900.911" stroke="url(#paint21_linear_10561_360)" stroke-width="2" stroke-miterlimit="10"/>
<path d="M90.2852 -175.756C135.555 -176.229 181.275 -162.04 220.065 -136.311C252.195 -114.932 279.465 -86.0812 300.075 -52.4059C306.015 -42.7573 311.235 -32.9195 316.005 -22.8926C337.155 21.9448 345.705 68.4849 343.455 114.363C341.925 145.106 335.535 175.66 325.365 205.362C321.225 217.47 316.185 231.659 313.125 246.321C309.165 265.524 308.805 285.388 318.705 302.037C333.825 327.388 362.805 334.388 389.175 341.104C396.195 342.901 402.945 344.604 409.335 346.685C442.005 357.091 467.025 380.361 479.445 413.847C481.335 418.955 482.955 424.347 484.215 429.928C493.215 469.184 475.125 501.346 468.915 537.008C467.925 542.683 467.205 548.548 467.025 554.413C466.215 575.507 470.715 598.494 483.675 615.521C493.935 629.048 512.205 634.534 529.305 636.331C533.355 636.804 537.405 636.993 541.275 637.088C562.785 637.561 584.205 633.683 605.625 634.156C650.715 635.102 694.725 656.764 725.325 691.479C734.865 702.263 743.145 714.371 749.715 727.425C777.345 782.479 774.285 853.235 741.975 905.356" stroke="url(#paint22_linear_10561_360)" stroke-width="2" stroke-miterlimit="10"/>
<path d="M100.279 -182.661C183.979 -180.39 265.339 -132.431 310.789 -58.5536C361.549 24.0267 360.109 120.229 325.459 208.295C313.939 237.714 296.929 278.862 313.759 308.848C332.209 341.672 374.059 343.186 405.379 351.605C444.439 362.199 473.959 390.672 484.309 432.766C495.469 478.266 467.839 513.455 464.149 557.535C462.349 579.197 466.039 603.319 478.459 621.292C490.699 638.981 515.719 643.805 535.609 644.372C557.029 644.94 578.359 640.683 599.869 640.778C658.909 641.156 716.599 677.669 744.409 732.345C772.309 787.02 769.249 857.681 736.849 909.613" stroke="url(#paint23_linear_10561_360)" stroke-width="2" stroke-miterlimit="10"/>
<path d="M92.3574 -178.783C135.107 -178.026 177.317 -166.107 214.847 -144.824C251.567 -124.013 283.877 -94.2159 307.007 -57.5135C324.647 -29.6084 336.167 0.188663 341.927 30.9316C347.417 59.9719 347.777 89.5797 343.817 118.809C340.847 140.755 335.357 162.417 327.977 183.795C324.917 192.687 321.497 201.484 317.807 210.281C313.217 221.065 307.907 233.457 303.947 246.322C297.107 268.267 293.777 292.2 304.397 311.402C315.917 332.118 337.157 340.632 358.937 345.929C371.807 349.05 384.857 351.037 396.647 353.875C407.267 356.523 417.257 360.307 426.347 365.321C446.867 376.672 463.157 393.982 472.877 416.969C474.767 421.32 476.387 425.955 477.737 430.685C485.117 456.509 479.627 479.59 472.967 503.144C468.197 519.887 462.887 536.724 461.447 555.17C461.357 555.832 461.357 556.494 461.267 557.157C459.917 578.44 463.517 601.899 475.667 619.399C483.947 631.318 497.897 637.561 512.207 640.494C519.587 642.007 527.147 642.575 534.077 642.575C541.907 642.669 549.737 642.007 557.567 641.156C571.517 639.642 585.287 637.467 599.147 636.994C615.527 636.426 631.817 638.507 647.477 642.859C676.367 650.899 703.367 667.075 724.247 690.061C733.337 699.993 741.167 711.25 747.557 723.358C749.987 728.088 752.237 732.912 754.217 737.831C775.907 791.087 770.507 855.978 739.727 904.032" stroke="url(#paint24_linear_10561_360)" stroke-width="2" stroke-miterlimit="10"/>
<path d="M84.3477 -174.999C127.638 -174.62 170.388 -163.553 208.638 -143.026C245.988 -122.877 279.378 -93.4587 303.138 -56.7564C321.228 -28.8512 333.108 1.13501 338.688 32.5401C343.998 61.9588 343.818 91.945 338.958 121.174C335.268 143.12 329.058 164.593 320.958 185.687C317.628 194.485 313.938 203.187 309.978 211.89C305.028 222.674 299.448 234.971 295.218 247.836C288.018 269.687 284.148 294.092 294.858 313.578C306.288 334.483 327.888 343.186 349.668 348.294C362.628 351.321 375.768 353.118 387.648 355.672C398.358 358.037 408.348 361.537 417.618 366.078C438.408 376.483 455.058 392.753 465.588 414.793C467.658 418.956 469.458 423.401 470.988 428.037C479.268 453.104 475.038 476.09 469.098 499.739C464.868 516.576 459.918 533.603 458.568 552.049C458.478 552.711 458.478 553.373 458.478 554.035C457.218 575.414 460.638 599.157 472.878 616.751C481.338 628.954 495.558 635.386 510.228 638.129C517.788 639.548 525.438 640.116 532.548 640.021C540.558 639.927 548.568 639.17 556.488 638.129C570.618 636.332 584.568 633.683 598.608 632.643C615.168 631.413 631.548 632.643 647.388 636.237C676.638 642.859 704.628 657.521 726.498 680.318C735.948 690.156 744.138 701.507 750.798 713.804C753.318 718.534 755.657 723.453 757.727 728.466C780.317 782.574 774.648 849.262 742.698 897.884" stroke="url(#paint25_linear_10561_360)" stroke-width="2" stroke-miterlimit="10"/>
<path d="M76.3379 -171.121C120.078 -171.121 163.458 -160.904 202.428 -141.04C240.498 -121.648 274.788 -92.5132 299.268 -55.8108C317.808 -28.0003 329.958 2.36431 335.448 34.4316C340.578 64.2286 339.768 94.5932 334.098 123.823C329.778 145.768 322.758 166.957 313.938 187.863C310.248 196.565 306.378 205.268 302.148 213.876C296.838 224.66 290.988 236.862 286.488 249.822C278.928 271.578 274.608 296.551 285.228 316.226C296.658 337.226 318.528 346.213 340.398 351.131C353.448 354.064 366.678 355.672 378.648 357.942C389.448 360.023 399.528 363.145 408.798 367.402C429.858 376.956 446.958 391.996 458.298 413.185C460.458 417.253 462.438 421.509 464.148 426.05C473.328 450.36 470.358 473.252 465.138 496.995C461.448 513.927 456.858 531.143 455.688 549.684C455.688 550.346 455.598 551.008 455.598 551.67C454.518 573.143 457.578 597.075 469.998 614.859C478.728 627.345 493.218 633.872 508.158 636.615C515.898 638.034 523.638 638.413 530.928 638.224C539.118 638.034 547.218 637.088 555.228 635.764C569.538 633.588 583.668 630.467 597.798 628.859C614.448 626.967 631.008 627.44 647.118 630.183C676.818 635.291 705.708 648.534 728.568 671.142C738.378 680.885 746.928 692.331 753.858 704.817C756.558 709.642 758.898 714.655 761.058 719.669C784.548 774.722 778.608 843.114 745.488 892.208" stroke="url(#paint26_linear_10561_360)" stroke-width="2" stroke-miterlimit="10"/>
<path d="M68.3301 -167.242C112.61 -167.526 156.44 -158.256 196.22 -139.148C234.92 -120.418 270.29 -91.6618 295.49 -54.9594C314.48 -27.1489 326.99 3.4995 332.21 36.1343C337.16 66.3097 335.81 97.0527 329.24 126.188C324.29 148.133 316.37 169.039 307.01 189.755C303.05 198.363 298.82 206.971 294.41 215.579C288.83 226.362 282.53 238.47 277.85 251.43C269.93 273.092 265.07 298.537 275.78 318.497C287.12 339.591 309.35 348.861 331.22 353.591C344.36 356.429 357.59 357.848 369.74 359.834C380.54 361.631 390.71 364.469 400.16 368.253C421.4 376.861 438.95 390.861 451.1 411.104C453.44 414.982 455.6 419.144 457.49 423.496C467.48 446.955 465.77 469.847 461.36 493.684C458.21 510.711 453.89 528.116 452.9 546.751C452.9 547.414 452.81 548.076 452.81 548.738C451.82 570.4 454.7 594.521 467.12 612.305C476.03 625.075 490.79 631.791 506 634.44C513.83 635.859 521.84 636.142 529.22 635.764C537.5 635.386 545.78 634.251 553.88 632.832C568.37 630.278 582.68 626.683 596.9 624.602C613.73 622.048 630.38 621.67 646.76 623.656C676.91 627.345 706.7 639.075 730.46 661.399C740.72 671.048 749.54 682.588 756.74 695.264C759.53 700.182 762.05 705.196 764.21 710.399C788.51 766.398 782.39 836.397 748.1 886.154" stroke="url(#paint27_linear_10561_360)" stroke-width="2" stroke-miterlimit="10"/>
<path d="M60.3184 -163.458C105.048 -164.121 149.508 -155.702 190.008 -137.256C229.338 -119.189 265.788 -90.8105 291.618 -54.1081C311.058 -26.2975 323.928 4.54004 328.968 37.837C333.738 68.3908 331.848 99.5121 324.378 128.647C318.708 150.593 310.068 171.309 299.988 191.741C295.758 200.254 291.258 208.768 286.488 217.281C280.548 228.065 273.978 240.078 269.028 253.038C260.838 274.605 255.348 300.524 266.058 320.767C277.308 341.956 299.898 351.415 321.768 356.145C334.908 358.888 348.318 360.118 360.558 361.821C371.448 363.334 381.708 365.888 391.248 369.294C412.758 377.05 430.758 389.82 443.628 409.212C446.148 412.901 448.488 416.874 450.468 421.131C461.358 443.833 460.818 466.63 457.218 490.563C454.608 507.684 450.648 525.279 449.748 544.008C449.748 544.67 449.658 545.333 449.658 545.995C448.848 567.751 451.458 592.062 463.968 610.035C473.058 622.994 488.088 629.994 503.658 632.548C511.668 633.872 519.768 634.156 527.328 633.683C535.788 633.21 544.158 631.886 552.438 630.183C567.198 627.251 581.598 623.278 595.998 620.535C613.008 617.413 629.748 616.183 646.398 617.413C676.998 619.589 707.778 629.994 732.438 652.034C743.058 661.588 752.238 673.223 759.708 685.993C762.588 690.912 765.198 696.115 767.538 701.318C792.738 758.168 786.348 829.965 750.888 880.194" stroke="url(#paint28_linear_10561_360)" stroke-width="2" stroke-miterlimit="10"/>
<path d="M52.3086 -159.58C97.5786 -160.62 142.489 -153.053 183.799 -135.364C223.849 -118.053 261.199 -90.0534 287.749 -53.1619C307.639 -25.3513 320.779 5.77 325.729 39.6345C330.229 70.5667 327.799 102.066 319.519 131.201C313.219 153.147 303.769 173.579 292.969 193.822C288.469 202.241 283.699 210.66 278.659 219.173C272.359 229.863 265.519 241.971 260.299 254.93C251.749 276.308 245.809 302.794 256.519 323.227C267.679 344.51 290.629 354.253 312.589 358.794C325.819 361.442 339.319 362.483 351.649 363.996C362.539 365.321 372.889 367.402 382.609 370.429C404.299 377.24 422.839 388.969 436.519 407.415C439.129 411.01 441.649 414.793 443.899 418.955C455.599 440.901 456.409 463.604 453.529 487.63C451.459 504.846 447.859 522.63 447.049 541.454C447.049 542.116 446.959 542.779 446.959 543.441C446.239 565.292 448.579 589.886 461.179 607.859C470.539 621.102 485.839 628.197 501.679 630.751C509.869 632.075 518.059 632.17 525.799 631.602C534.439 630.94 542.899 629.521 551.269 627.629C566.209 624.318 580.789 619.872 595.279 616.656C612.379 612.873 629.389 610.886 646.129 611.264C677.089 611.927 708.859 620.913 734.418 642.764C745.488 652.223 754.939 663.953 762.679 676.912C765.649 681.926 768.349 687.129 770.779 692.52C796.879 750.317 790.219 823.816 753.589 874.613" stroke="url(#paint29_linear_10561_360)" stroke-width="2" stroke-miterlimit="10"/>
<path d="M44.3887 -155.797C90.1087 -157.216 135.649 -150.5 177.589 -133.473C218.269 -116.825 256.699 -89.2033 283.879 -52.3117C304.219 -24.5011 317.629 6.90397 322.489 41.4307C326.809 72.7412 323.839 104.619 314.749 133.754C307.819 155.7 297.559 175.943 286.039 195.902C281.179 204.227 276.139 212.645 270.919 220.97C264.259 231.659 257.149 243.672 251.749 256.631C242.839 277.915 236.359 304.874 247.069 325.59C258.229 346.969 281.449 356.995 303.409 361.347C316.729 363.995 330.229 364.752 342.739 365.982C353.719 367.022 364.159 368.82 373.879 371.468C395.839 377.428 414.739 387.928 429.229 405.522C432.019 408.927 434.719 412.617 437.059 416.59C449.659 437.684 451.729 460.386 449.569 484.508C448.039 501.818 444.799 519.791 444.079 538.71C444.079 539.372 443.989 540.034 443.989 540.696C443.359 562.642 445.519 587.52 458.209 605.588C467.749 619.115 483.319 626.398 499.519 628.858C507.799 630.088 516.259 630.182 524.089 629.52C532.819 628.763 541.459 627.061 550.009 624.98C565.129 621.29 579.889 616.371 594.559 612.588C611.839 608.142 628.939 605.304 645.949 604.926C677.359 604.169 710.029 611.642 736.579 633.304C748.009 642.669 757.819 654.493 765.829 667.641C768.889 672.749 771.679 678.047 774.199 683.438C801.199 742.181 794.269 817.289 756.469 868.748" stroke="url(#paint30_linear_10561_360)" stroke-width="2" stroke-miterlimit="10"/>
<path d="M36.3789 -151.918C82.6389 -153.715 128.719 -147.945 171.379 -131.58C212.779 -115.594 252.199 -88.3507 280.009 -51.4591C300.889 -23.7431 314.569 8.04036 319.159 43.1346C323.299 74.8235 319.789 107.08 309.799 136.215C302.149 158.161 291.169 178.12 278.929 197.89C273.799 206.12 268.489 214.444 262.999 222.768C255.979 233.457 248.599 245.376 242.929 258.43C233.659 279.619 226.729 307.051 237.349 328.051C248.419 349.524 271.909 359.835 294.049 363.997C307.459 366.551 321.049 367.118 333.649 368.064C344.629 368.821 355.159 370.24 365.059 372.51C387.199 377.524 406.639 386.888 421.849 403.631C424.819 406.848 427.699 410.348 430.219 414.226C443.629 434.564 446.959 457.266 445.609 481.482C444.619 498.887 441.739 516.955 441.109 535.968C441.109 536.63 441.109 537.292 441.019 538.049C440.569 560.089 442.369 585.157 455.239 603.413C464.959 617.224 480.889 624.602 497.269 627.062C505.729 628.292 514.279 628.292 522.289 627.44C531.199 626.494 540.019 624.697 548.569 622.427C563.959 618.359 578.809 613.062 593.569 608.711C611.029 603.603 628.219 600.008 645.499 598.778C677.359 596.508 710.929 602.562 738.469 624.035C750.259 633.305 760.429 645.224 768.709 658.562C771.859 663.67 774.739 669.061 777.349 674.548C805.249 734.142 798.049 811.047 759.079 862.979" stroke="url(#paint31_linear_10561_360)" stroke-width="2" stroke-miterlimit="10"/>
<path d="M28.3672 -148.04C75.0772 -150.216 121.697 -145.297 165.167 -129.594C207.197 -114.365 247.607 -87.4054 276.137 -50.5138C297.467 -22.7979 311.507 9.26941 315.917 44.9313C319.877 76.9985 315.737 109.633 304.937 138.674C296.657 160.619 284.867 180.389 271.997 199.876C266.597 208.011 261.017 216.241 255.257 224.47C247.877 235.159 240.227 246.984 234.287 260.037C224.747 281.132 217.187 309.132 227.897 330.321C238.877 351.983 262.727 362.483 284.867 366.55C298.367 369.009 312.047 369.482 324.647 370.05C335.717 370.618 346.337 371.658 356.327 373.455C378.737 377.523 398.627 385.847 414.647 401.739C417.707 404.861 420.767 408.171 423.467 411.86C437.687 431.441 442.367 454.049 441.737 478.36C441.287 495.86 438.677 514.116 438.227 533.224C438.227 533.886 438.227 534.549 438.227 535.305C437.867 557.44 439.487 582.791 452.357 601.048C462.257 615.048 478.457 622.71 495.197 625.075C503.837 626.304 512.477 626.115 520.757 625.169C529.847 624.129 538.757 622.142 547.487 619.683C563.057 615.237 578.087 609.467 592.937 604.548C610.487 598.778 627.857 594.332 645.407 592.345C677.717 588.656 712.277 593.197 740.627 614.386C752.867 623.561 763.307 635.575 771.857 649.102C775.097 654.304 778.067 659.791 780.767 665.372C809.567 725.912 802.007 804.519 761.957 857.019" stroke="url(#paint32_linear_10561_360)" stroke-width="2" stroke-miterlimit="10"/>
<path d="M20.3555 -144.256C67.6055 -146.81 114.765 -142.742 158.955 -127.797C201.705 -113.229 243.105 -86.6484 272.265 -49.6622C294.045 -21.9462 308.445 10.3102 312.675 46.6342C316.455 79.0799 311.775 112.093 300.075 141.133C291.165 163.079 278.475 182.565 264.975 201.863C259.305 209.903 253.455 218.038 247.425 226.268C239.685 236.957 231.675 248.686 225.555 261.74C215.655 282.74 207.645 311.213 218.265 332.686C229.155 354.442 253.365 365.131 275.505 369.104C289.095 371.469 302.775 371.753 315.555 372.037C326.715 372.321 337.335 373.077 347.505 374.496C370.095 377.712 390.525 384.807 407.265 399.847C410.505 402.78 413.745 405.901 416.625 409.59C431.655 428.32 437.685 450.928 437.775 475.333C437.865 492.928 435.615 511.373 435.255 530.576C435.255 531.238 435.255 531.995 435.255 532.657C434.985 554.886 436.335 580.427 449.385 598.873C459.555 613.156 475.935 621.008 493.035 623.278C501.855 624.413 510.675 624.224 519.045 623.183C528.225 621.953 537.315 619.778 546.135 617.129C561.885 612.305 577.005 606.062 592.125 600.67C609.855 594.237 627.315 589.035 645.045 586.292C677.805 581.089 713.266 584.211 742.606 605.21C755.206 614.291 766.095 626.399 774.825 640.115C778.155 645.413 781.216 650.899 784.006 656.575C813.706 718.061 805.876 798.276 764.656 851.343" stroke="url(#paint33_linear_10561_360)" stroke-width="2" stroke-miterlimit="10"/>
<path d="M12.3477 -140.377C60.0476 -143.31 107.748 -140.094 152.748 -125.81C196.128 -111.905 238.608 -85.7968 268.488 -48.7161C290.718 -21.0001 305.388 11.5401 309.528 48.4317C313.128 81.2557 307.908 114.647 295.308 143.688C285.678 165.633 272.268 184.93 258.048 203.944C252.018 211.89 245.898 219.93 239.688 228.16C231.588 238.754 223.308 250.579 216.918 263.632C206.658 284.538 198.108 313.483 208.818 335.24C219.708 357.091 244.188 368.064 266.418 371.848C280.098 374.118 293.868 374.023 306.738 374.213C317.898 374.402 328.698 374.591 338.868 375.631C361.728 377.996 382.608 383.861 400.068 398.05C403.488 400.793 406.818 403.82 409.968 407.32C425.808 425.293 433.098 447.807 433.998 472.306C434.628 489.995 432.738 508.63 432.468 527.927C432.468 528.59 432.468 529.346 432.468 530.008C432.378 552.333 433.458 578.157 446.508 596.602C456.858 611.17 473.598 619.116 490.968 621.291C499.878 622.427 508.878 622.143 517.428 620.913C526.788 619.589 535.968 617.224 544.968 614.386C560.898 609.278 576.198 602.562 591.408 596.508C609.318 589.413 626.958 583.454 644.868 579.859C677.988 573.238 714.437 574.941 744.767 595.657C757.817 604.643 768.977 616.846 777.977 630.751C781.397 636.143 784.547 641.724 787.427 647.399C818.027 709.737 809.928 791.749 767.448 845.384" stroke="url(#paint34_linear_10561_360)" stroke-width="2" stroke-miterlimit="10"/>
<path d="M4.33789 -136.594C52.5779 -139.81 100.818 -137.54 146.538 -124.013C190.548 -110.77 234.108 -85.0404 264.618 -47.9597C287.298 -20.2437 302.328 12.5803 306.198 50.134C309.618 83.3364 303.858 117.106 290.358 146.147C280.098 168.092 265.878 187.106 250.938 205.93C244.638 213.781 238.248 221.822 231.768 229.862C223.308 240.457 214.758 252.186 208.098 265.24C197.478 286.051 188.388 315.469 199.098 337.415C209.898 359.361 234.738 370.618 256.968 374.212C270.738 376.388 284.508 376.293 297.558 376.104C308.808 375.915 319.608 375.915 329.958 376.577C352.998 377.996 374.418 382.82 392.688 396.063C396.288 398.617 399.798 401.55 403.038 404.861C419.688 422.077 428.328 444.495 429.948 469.09C431.118 486.873 429.588 505.697 429.408 525.089C429.408 525.751 429.408 526.508 429.408 527.17C429.408 549.684 430.308 575.602 443.448 594.237C453.978 609.088 470.988 617.223 488.628 619.305C497.718 620.44 506.808 620.061 515.538 618.737C525.078 617.318 534.348 614.764 543.438 611.642C559.638 606.156 575.028 598.967 590.328 592.44C608.328 584.683 626.148 577.872 644.328 573.521C677.898 565.386 715.248 565.67 746.478 586.197C759.888 595.089 771.408 607.386 780.678 621.386C784.278 626.777 787.518 632.453 790.398 638.318C821.898 701.601 813.528 785.317 769.878 839.519" stroke="url(#paint35_linear_10561_360)" stroke-width="2" stroke-miterlimit="10"/>
<path d="M-3.58203 -132.715C45.108 -136.31 93.978 -134.891 140.418 -122.026C185.148 -109.54 229.608 -84.0939 260.838 -47.0131C283.968 -19.3917 299.358 13.8107 303.048 51.9319C306.288 85.5127 299.898 119.661 285.588 148.701C274.698 170.647 259.668 189.471 244.098 208.012C237.528 215.768 230.778 223.714 224.118 231.755C215.298 242.349 206.478 253.984 199.548 267.133C188.658 287.849 179.028 317.74 189.738 339.97C200.448 362.01 225.648 373.551 247.878 377.051C261.738 379.132 275.598 378.848 288.738 378.375C299.988 377.902 310.968 377.618 321.408 377.807C344.718 378.375 366.588 381.97 385.578 394.361C389.268 396.821 392.958 399.564 396.468 402.78C413.928 419.239 423.918 441.564 426.348 466.253C428.148 484.131 426.798 503.144 426.888 522.63C426.888 523.293 426.888 524.049 426.888 524.712C426.978 547.319 427.608 573.522 440.928 592.157C451.638 607.292 469.008 615.522 486.918 617.603C496.188 618.643 505.458 618.17 514.278 616.751C523.908 615.143 533.448 612.4 542.628 609.184C559.008 603.319 574.578 595.657 590.058 588.562C608.238 580.143 626.148 572.576 644.508 567.373C678.528 557.725 716.868 556.59 748.998 576.927C762.858 585.63 774.648 598.116 784.188 612.305C787.878 617.792 791.208 623.562 794.178 629.427C826.578 693.656 817.938 779.074 773.118 833.749" stroke="url(#paint36_linear_10561_360)" stroke-width="2" stroke-miterlimit="10"/>
<path d="M-11.5918 -128.838C37.6382 -132.811 86.9582 -132.243 134.208 -120.135C179.568 -108.311 225.108 -83.2436 256.968 -46.1628C280.548 -18.5414 296.298 14.8502 299.808 53.6336C302.868 87.5928 295.938 122.119 280.818 151.065C269.208 173.011 253.458 191.551 237.168 209.902C230.328 217.565 223.308 225.416 216.378 233.362C207.198 243.956 198.108 255.497 190.908 268.645C179.658 289.172 169.488 319.631 180.198 342.145C190.818 364.279 216.378 376.009 238.698 379.414C252.648 381.496 266.598 381.023 279.828 380.171C291.168 379.509 302.148 378.752 312.678 378.658C336.258 378.279 358.488 380.739 378.288 392.279C382.158 394.549 386.028 397.103 389.628 400.225C407.898 415.928 419.148 438.157 422.388 462.941C424.728 481.008 423.738 500.116 423.918 519.602C423.918 520.359 423.918 521.021 423.918 521.778C424.188 544.481 424.548 570.872 437.868 589.696C448.848 605.021 466.398 613.534 484.668 615.52C494.028 616.561 503.478 615.993 512.478 614.385C522.288 612.683 531.918 609.75 541.188 606.25C557.748 600.007 573.498 591.967 589.068 584.305C607.428 575.318 625.428 566.899 644.058 560.845C678.528 549.778 717.768 547.129 750.798 567.278C765.018 575.886 777.168 588.467 786.978 602.845C790.758 608.426 794.178 614.196 797.238 620.156C830.538 685.236 821.628 772.357 775.638 827.694" stroke="url(#paint37_linear_10561_360)" stroke-width="2" stroke-miterlimit="10"/>
<path d="M-19.6035 -125.053C30.1665 -129.404 80.0265 -129.688 127.996 -118.242C174.076 -107.08 220.606 -82.3912 253.096 -45.2158C277.126 -17.5945 293.236 16.0809 296.566 55.4319C299.536 89.7695 291.976 124.675 275.956 153.62C263.716 175.661 247.156 193.823 230.146 211.985C222.946 219.552 215.746 227.309 208.546 235.255C199.006 245.755 189.646 257.295 182.266 270.444C170.746 290.876 160.036 321.902 170.746 344.605C181.366 366.929 207.196 378.848 229.516 382.064C243.556 384.051 257.506 383.388 270.916 382.253C282.346 381.307 293.416 380.267 304.036 379.699C327.796 378.47 350.566 379.794 371.176 390.388C375.226 392.469 379.276 394.929 383.056 397.861C402.136 412.807 414.736 434.942 418.696 459.82C421.576 477.982 420.946 497.185 421.216 516.86C421.216 517.617 421.216 518.279 421.216 519.036C421.576 541.833 421.666 568.508 435.166 587.427C446.326 603.035 464.236 611.643 482.776 613.63C492.316 614.67 501.856 614.008 511.036 612.305C521.026 610.508 530.746 607.386 540.196 603.697C557.026 597.076 572.866 588.562 588.526 580.333C606.976 570.684 625.156 561.414 644.056 554.698C678.976 542.117 719.116 538.049 753.136 557.914C767.716 566.427 780.226 579.103 790.306 593.67C794.176 599.251 797.686 605.211 800.836 611.265C835.036 677.291 825.856 766.115 778.696 821.925" stroke="url(#paint38_linear_10561_360)" stroke-width="2" stroke-miterlimit="10"/>
<path d="M-27.6094 -121.174C22.6106 -125.904 73.0106 -127.134 121.701 -116.35C168.411 -105.945 215.931 -81.6343 249.141 -44.3643C273.621 -16.743 290.091 17.2162 293.151 57.2293C295.941 91.9452 287.751 127.229 270.921 156.174C258.051 178.215 240.591 196.188 222.951 214.066C215.481 221.633 207.921 229.201 200.541 237.147C190.641 247.647 181.011 259.187 173.361 272.336C161.481 292.673 150.231 324.173 160.941 347.159C171.471 369.578 197.661 381.78 220.071 384.807C234.111 386.699 248.241 385.848 261.741 384.429C273.171 383.199 284.331 381.875 295.131 380.929C319.161 378.848 342.381 378.943 363.711 388.686C367.941 390.578 372.081 392.942 376.041 395.686C395.931 409.875 409.881 431.915 414.561 456.888C417.981 475.144 417.711 494.536 418.071 514.306C418.071 515.063 418.071 515.725 418.161 516.482C418.611 539.374 418.521 566.333 432.021 585.252C443.361 601.143 461.541 609.941 480.351 611.832C490.071 612.778 499.701 612.116 509.061 610.224C519.141 608.238 529.041 604.927 538.581 601.049C555.591 594.049 571.611 585.062 587.451 576.36C606.081 566.049 624.351 556.022 643.521 548.455C678.801 534.455 720.021 528.968 754.941 548.549C769.971 556.968 782.751 569.738 793.101 584.495C797.061 590.17 800.661 596.13 803.901 602.278C839.001 669.156 829.551 759.777 781.221 816.155" stroke="url(#paint39_linear_10561_360)" stroke-width="2" stroke-miterlimit="10"/>
<path d="M-35.623 -117.391C15.1369 -122.499 66.0769 -124.58 115.487 -114.459C162.827 -104.716 211.427 -80.7835 245.267 -43.5135C270.197 -15.9868 287.027 18.2562 289.907 58.9315C292.517 94.1203 283.787 129.688 266.057 158.633C252.467 180.674 234.287 198.363 215.927 216.052C208.187 223.525 200.357 230.998 192.707 238.849C182.447 249.349 172.547 260.795 164.627 273.943C152.387 294.186 140.687 326.159 151.397 349.334C161.837 371.848 188.387 384.334 210.797 387.266C224.927 389.064 239.147 388.023 252.737 386.32C264.257 384.902 275.507 383.199 286.397 381.78C310.607 378.753 334.367 377.712 356.417 386.604C360.737 388.401 365.147 390.483 369.287 393.226C389.987 406.658 405.287 428.604 410.687 453.671C414.647 472.022 414.737 491.603 415.187 511.468C415.187 512.225 415.187 512.887 415.277 513.644C415.907 536.63 415.457 563.778 429.137 582.886C440.747 599.062 459.107 608.048 478.277 609.845C488.087 610.791 497.987 609.94 507.437 607.954C517.697 605.872 527.687 602.373 537.317 598.305C554.507 590.927 570.707 581.562 586.637 572.197C605.447 561.224 623.897 550.346 643.157 542.022C678.887 526.508 721.007 519.603 756.827 538.995C772.217 547.319 785.357 560.184 795.977 575.13C800.027 580.9 803.717 586.954 807.047 593.197C843.047 661.021 833.237 753.249 783.827 810.29" stroke="url(#paint40_linear_10561_360)" stroke-width="2" stroke-miterlimit="10"/>
<path d="M-43.6328 -113.513C7.57718 -118.999 59.1472 -121.932 109.277 -112.567C157.337 -103.486 206.927 -79.9322 241.487 -42.6623C266.957 -15.1355 283.967 19.3912 286.757 60.6341C289.187 96.2013 279.917 132.147 261.287 161.093C247.067 183.133 228.077 200.633 209.087 218.038C201.077 225.416 192.977 232.795 185.057 240.646C174.437 251.146 164.267 262.497 156.077 275.74C143.567 295.889 131.237 328.334 141.947 351.794C152.297 374.402 179.117 387.172 201.617 389.915C215.837 391.618 230.057 390.482 243.827 388.496C255.347 386.793 266.687 384.712 277.667 382.915C302.147 379.037 326.357 376.766 349.127 384.807C353.627 386.415 358.127 388.401 362.447 390.955C383.957 403.631 400.517 425.577 406.727 450.739C411.227 469.184 411.587 488.955 412.217 508.914C412.217 509.671 412.307 510.333 412.307 511.089C413.027 534.17 412.397 561.603 426.167 580.71C437.957 597.075 456.677 606.251 476.117 608.048C486.107 608.994 496.097 608.048 505.727 605.967C516.167 603.697 526.337 600.102 536.057 595.751C553.517 587.994 569.807 578.156 585.917 568.224C604.817 556.589 623.447 544.954 642.977 535.778C679.157 518.752 722.177 510.427 758.987 529.63C774.827 537.86 788.237 550.819 799.127 565.954C803.267 571.724 807.047 577.873 810.467 584.21C847.367 652.98 837.287 746.912 786.707 804.425" stroke="url(#paint41_linear_10561_360)" stroke-width="2" stroke-miterlimit="10"/>
<path d="M-51.6445 -109.635C0.105461 -115.5 52.1255 -119.283 103.065 -110.581C151.755 -102.162 202.425 -78.9865 237.615 -41.7166C263.535 -14.1898 280.905 20.6207 283.515 62.4311C285.765 98.3768 275.865 134.701 256.425 163.552C241.575 185.592 221.775 202.808 202.065 220.024C193.695 227.308 185.325 234.686 177.225 242.348C166.245 252.754 155.805 264.105 147.345 277.348C134.475 297.402 121.605 330.321 132.315 354.064C142.665 376.766 169.755 389.725 192.345 392.374C206.655 393.982 220.965 392.658 234.825 390.388C246.435 388.496 257.865 386.036 268.935 383.861C293.595 379.036 318.345 375.631 341.925 382.82C346.605 384.239 351.285 386.131 355.785 388.496C378.105 400.415 396.105 422.266 402.945 447.522C408.075 466.063 408.705 486.022 409.425 506.076C409.425 506.833 409.515 507.589 409.515 508.251C410.325 531.522 409.515 559.048 423.285 578.345C435.255 594.994 454.245 604.359 474.045 606.061C484.215 606.913 494.295 605.967 504.195 603.697C514.725 601.332 525.075 597.548 534.885 593.007C552.525 584.872 568.995 574.562 585.195 564.156C604.275 551.859 622.995 539.467 642.795 529.44C679.425 510.995 723.345 501.157 761.055 520.17C777.255 528.305 791.025 541.359 802.185 556.683C806.415 562.548 810.285 568.791 813.795 575.129C851.595 644.75 841.245 740.479 789.495 798.56" stroke="url(#paint42_linear_10561_360)" stroke-width="2" stroke-miterlimit="10"/>
<path d="M-59.5625 -105.851C-7.36251 -112.094 45.2875 -116.729 96.9475 -108.783C146.357 -101.121 197.927 -78.3241 233.837 -40.8649C260.207 -13.3382 277.937 21.7561 280.367 64.1341C282.437 100.458 271.997 137.16 251.747 166.012C236.267 188.052 215.657 205.079 195.227 222.011C186.587 229.2 177.947 236.484 169.577 244.146C158.237 254.551 147.527 265.903 138.797 279.051C125.657 299.01 112.247 332.402 122.957 356.429C133.217 379.226 160.667 392.469 183.257 394.928C197.657 396.537 211.967 394.928 226.007 392.374C237.707 390.199 249.137 387.456 260.387 384.807C285.317 379.131 310.517 374.496 334.817 380.834C339.677 382.064 344.447 383.861 349.127 386.131C372.257 397.293 391.517 419.05 399.167 444.401C404.837 463.036 405.827 483.184 406.637 503.238C406.637 503.995 406.727 504.752 406.727 505.414C407.717 528.779 406.547 556.589 420.497 575.981C432.647 592.913 451.997 602.372 471.977 603.981C482.327 604.832 492.587 603.791 502.577 601.427C513.287 598.873 523.727 594.9 533.717 590.17C551.537 581.751 568.187 570.967 584.477 559.9C603.737 546.941 622.547 533.697 642.617 522.914C679.607 502.954 724.607 491.698 763.217 510.427C779.777 518.468 793.907 531.616 805.337 547.035C809.747 552.995 813.707 559.238 817.217 565.765C855.917 636.332 845.297 733.763 792.377 792.317" stroke="url(#paint43_linear_10561_360)" stroke-width="2" stroke-miterlimit="10"/>
<path d="M-67.5723 -101.972C-14.8323 -108.499 38.2677 -114.08 90.7377 -106.796C140.778 -99.7965 193.428 -77.3778 229.968 -39.9186C256.788 -12.3919 274.878 22.8916 277.038 66.0263C278.928 102.729 267.948 139.809 246.798 168.661C230.598 190.701 209.268 207.444 188.118 224.187C179.208 231.282 170.208 238.471 161.658 246.038C149.958 256.349 138.978 267.7 129.978 280.943C116.568 300.903 102.528 334.767 113.238 358.983C123.408 381.875 151.218 395.402 173.808 397.767C188.298 399.28 202.698 397.577 216.828 394.645C228.528 392.28 240.138 389.064 251.478 386.132C276.588 379.51 302.328 373.74 327.348 379.226C332.298 380.267 337.338 381.875 342.198 384.05C366.138 394.55 386.748 416.118 395.118 441.563C401.328 460.293 402.678 480.631 403.578 500.779C403.578 501.536 403.668 502.293 403.668 503.049C404.748 526.509 403.398 554.508 417.438 573.995C429.858 591.211 449.388 600.859 469.728 602.373C480.168 603.13 490.608 601.994 500.778 599.535C511.668 596.886 522.198 592.724 532.278 587.805C550.278 579.008 567.018 567.752 583.578 556.211C602.928 542.59 621.918 528.59 642.168 517.049C679.608 495.671 725.508 482.996 765.108 501.441C782.118 509.387 796.518 522.63 808.218 538.238C812.718 544.198 816.768 550.63 820.368 557.157C859.968 628.67 849.078 727.71 794.988 786.925" stroke="url(#paint44_linear_10561_360)" stroke-width="2" stroke-miterlimit="10"/>
<path d="M-75.584 -98.1885C-22.394 -105.094 31.336 -111.526 84.526 -104.999C135.286 -98.6615 188.926 -76.6211 226.096 -39.162C253.366 -11.7298 271.726 23.932 273.796 67.6343C275.506 104.715 263.896 142.174 241.936 171.025C225.106 193.066 202.876 209.62 181.096 226.079C171.916 233.079 162.646 240.173 153.826 247.741C141.766 258.052 130.516 269.308 121.336 282.551C107.566 302.321 93.076 336.754 103.786 361.253C113.866 384.334 142.036 398.05 164.716 400.226C179.296 401.645 193.786 399.753 208.006 396.537C219.796 393.888 231.406 390.388 242.836 386.983C268.216 379.51 294.406 372.51 320.236 377.145C325.366 378.091 330.496 379.51 335.536 381.496C360.286 391.334 382.246 412.712 391.336 438.253C398.086 457.077 399.706 477.509 400.876 497.847C400.876 498.603 400.966 499.36 400.966 500.117C402.226 523.671 400.516 551.954 414.646 571.535C427.246 589.035 447.046 598.778 467.746 600.292C478.366 601.048 488.896 599.819 499.246 597.17C510.226 594.427 520.936 590.076 531.196 584.873C549.466 575.697 566.296 563.968 582.946 551.86C602.476 537.576 621.646 522.819 642.076 510.428C679.966 487.536 726.766 473.441 767.266 491.698C784.636 499.549 799.396 512.887 811.366 528.684C815.956 534.738 820.096 541.171 823.786 547.792C864.286 620.156 853.126 720.993 797.866 780.777" stroke="url(#paint45_linear_10561_360)" stroke-width="2" stroke-miterlimit="10"/>
<path d="M-83.5918 -94.3096C-29.8618 -101.593 24.4082 -108.877 78.3182 -103.012C167.328 -93.269 266.148 -35.2831 270.558 69.4322C272.088 106.891 259.938 144.729 237.078 173.485C219.618 195.526 196.578 211.796 174.168 228.066C151.668 244.336 129.078 261.363 112.608 284.255C98.4782 303.93 83.4482 338.835 94.1582 363.524C104.238 386.7 132.678 400.7 155.358 402.686C182.088 405.145 208.368 396.348 234.018 387.929C259.668 379.51 286.218 371.375 312.858 375.159C344.178 379.605 375.498 404.199 387.378 435.132C394.938 454.713 396.828 476.185 397.998 497.374C399.348 521.023 397.458 549.59 411.678 569.171C424.458 586.86 444.618 596.887 465.588 598.306C487.818 599.819 509.868 592.536 529.848 582.225C569.988 561.414 603.378 528.496 641.718 504.185C680.058 479.874 727.758 464.267 769.248 482.334C793.818 493.023 813.348 514.59 827.028 538.901C868.428 612.211 856.998 714.751 800.568 775.007" stroke="url(#paint46_linear_10561_360)" stroke-width="2" stroke-miterlimit="10"/>
</g>
<defs>
<linearGradient id="paint0_linear_10561_360" x1="372.423" y1="-52.9287" x2="372.423" y2="808.776" gradientUnits="userSpaceOnUse">
<stop offset="0.1875" stop-color="#929BFF" stop-opacity="0"/>
<stop offset="0.403846" stop-color="#929BFF" stop-opacity="0.822115"/>
<stop offset="0.918269" stop-color="#585D99" stop-opacity="0"/>
</linearGradient>
<linearGradient id="paint1_linear_10561_360" x1="374.956" y1="-58.062" x2="374.956" y2="813.127" gradientUnits="userSpaceOnUse">
<stop offset="0.1875" stop-color="#929BFF" stop-opacity="0"/>
<stop offset="0.403846" stop-color="#929BFF" stop-opacity="0.822115"/>
<stop offset="0.918269" stop-color="#585D99" stop-opacity="0"/>
</linearGradient>
<linearGradient id="paint2_linear_10561_360" x1="377.641" y1="-63.1787" x2="377.641" y2="817.668" gradientUnits="userSpaceOnUse">
<stop offset="0.1875" stop-color="#929BFF" stop-opacity="0"/>
<stop offset="0.403846" stop-color="#929BFF" stop-opacity="0.822115"/>
<stop offset="0.918269" stop-color="#585D99" stop-opacity="0"/>
</linearGradient>
<linearGradient id="paint3_linear_10561_360" x1="379.982" y1="-68.2783" x2="379.982" y2="822.019" gradientUnits="userSpaceOnUse">
<stop offset="0.1875" stop-color="#929BFF" stop-opacity="0"/>
<stop offset="0.403846" stop-color="#929BFF" stop-opacity="0.822115"/>
<stop offset="0.918269" stop-color="#585D99" stop-opacity="0"/>
</linearGradient>
<linearGradient id="paint4_linear_10561_360" x1="382.701" y1="-73.4355" x2="382.701" y2="826.465" gradientUnits="userSpaceOnUse">
<stop offset="0.1875" stop-color="#929BFF" stop-opacity="0"/>
<stop offset="0.403846" stop-color="#929BFF" stop-opacity="0.822115"/>
<stop offset="0.918269" stop-color="#585D99" stop-opacity="0"/>
</linearGradient>
<linearGradient id="paint5_linear_10561_360" x1="385.461" y1="-78.6196" x2="385.461" y2="830.722" gradientUnits="userSpaceOnUse">
<stop offset="0.1875" stop-color="#929BFF" stop-opacity="0"/>
<stop offset="0.403846" stop-color="#929BFF" stop-opacity="0.822115"/>
<stop offset="0.918269" stop-color="#585D99" stop-opacity="0"/>
</linearGradient>
<linearGradient id="paint6_linear_10561_360" x1="387.797" y1="-83.8257" x2="387.797" y2="835.168" gradientUnits="userSpaceOnUse">
<stop offset="0.1875" stop-color="#929BFF" stop-opacity="0"/>
<stop offset="0.403846" stop-color="#929BFF" stop-opacity="0.822115"/>
<stop offset="0.918269" stop-color="#585D99" stop-opacity="0"/>
</linearGradient>
<linearGradient id="paint7_linear_10561_360" x1="390.514" y1="-89.1245" x2="390.514" y2="839.519" gradientUnits="userSpaceOnUse">
<stop offset="0.1875" stop-color="#929BFF" stop-opacity="0"/>
<stop offset="0.403846" stop-color="#929BFF" stop-opacity="0.822115"/>
<stop offset="0.918269" stop-color="#585D99" stop-opacity="0"/>
</linearGradient>
<linearGradient id="paint8_linear_10561_360" x1="393.147" y1="-94.4326" x2="393.147" y2="843.775" gradientUnits="userSpaceOnUse">
<stop offset="0.1875" stop-color="#929BFF" stop-opacity="0"/>
<stop offset="0.403846" stop-color="#929BFF" stop-opacity="0.822115"/>
<stop offset="0.918269" stop-color="#585D99" stop-opacity="0"/>
</linearGradient>
<linearGradient id="paint9_linear_10561_360" x1="395.731" y1="-99.7075" x2="395.731" y2="848.316" gradientUnits="userSpaceOnUse">
<stop offset="0.1875" stop-color="#929BFF" stop-opacity="0"/>
<stop offset="0.403846" stop-color="#929BFF" stop-opacity="0.822115"/>
<stop offset="0.918269" stop-color="#585D99" stop-opacity="0"/>
</linearGradient>
<linearGradient id="paint10_linear_10561_360" x1="398.203" y1="-105.052" x2="398.203" y2="852.478" gradientUnits="userSpaceOnUse">
<stop offset="0.1875" stop-color="#929BFF" stop-opacity="0"/>
<stop offset="0.403846" stop-color="#929BFF" stop-opacity="0.822115"/>
<stop offset="0.918269" stop-color="#585D99" stop-opacity="0"/>
</linearGradient>
<linearGradient id="paint11_linear_10561_360" x1="400.83" y1="-110.457" x2="400.83" y2="857.02" gradientUnits="userSpaceOnUse">
<stop offset="0.1875" stop-color="#929BFF" stop-opacity="0"/>
<stop offset="0.403846" stop-color="#929BFF" stop-opacity="0.822115"/>
<stop offset="0.918269" stop-color="#585D99" stop-opacity="0"/>
</linearGradient>
<linearGradient id="paint12_linear_10561_360" x1="403.597" y1="-115.899" x2="403.597" y2="861.464" gradientUnits="userSpaceOnUse">
<stop offset="0.1875" stop-color="#929BFF" stop-opacity="0"/>
<stop offset="0.403846" stop-color="#929BFF" stop-opacity="0.822115"/>
<stop offset="0.918269" stop-color="#585D99" stop-opacity="0"/>
</linearGradient>
<linearGradient id="paint13_linear_10561_360" x1="406.014" y1="-121.377" x2="406.014" y2="865.816" gradientUnits="userSpaceOnUse">
<stop offset="0.1875" stop-color="#929BFF" stop-opacity="0"/>
<stop offset="0.403846" stop-color="#929BFF" stop-opacity="0.822115"/>
<stop offset="0.918269" stop-color="#585D99" stop-opacity="0"/>
</linearGradient>
<linearGradient id="paint14_linear_10561_360" x1="408.579" y1="-126.944" x2="408.579" y2="870.073" gradientUnits="userSpaceOnUse">
<stop offset="0.1875" stop-color="#929BFF" stop-opacity="0"/>
<stop offset="0.403846" stop-color="#929BFF" stop-opacity="0.822115"/>
<stop offset="0.918269" stop-color="#585D99" stop-opacity="0"/>
</linearGradient>
<linearGradient id="paint15_linear_10561_360" x1="411.207" y1="-132.612" x2="411.207" y2="874.424" gradientUnits="userSpaceOnUse">
<stop offset="0.1875" stop-color="#929BFF" stop-opacity="0"/>
<stop offset="0.403846" stop-color="#929BFF" stop-opacity="0.822115"/>
<stop offset="0.918269" stop-color="#585D99" stop-opacity="0"/>
</linearGradient>
<linearGradient id="paint16_linear_10561_360" x1="413.833" y1="-138.344" x2="413.833" y2="879.153" gradientUnits="userSpaceOnUse">
<stop offset="0.1875" stop-color="#929BFF" stop-opacity="0"/>
<stop offset="0.403846" stop-color="#929BFF" stop-opacity="0.822115"/>
<stop offset="0.918269" stop-color="#585D99" stop-opacity="0"/>
</linearGradient>
<linearGradient id="paint17_linear_10561_360" x1="416.423" y1="-144.166" x2="416.423" y2="883.6" gradientUnits="userSpaceOnUse">
<stop offset="0.1875" stop-color="#929BFF" stop-opacity="0"/>
<stop offset="0.403846" stop-color="#929BFF" stop-opacity="0.822115"/>
<stop offset="0.918269" stop-color="#585D99" stop-opacity="0"/>
</linearGradient>
<linearGradient id="paint18_linear_10561_360" x1="418.986" y1="-150.158" x2="418.986" y2="887.856" gradientUnits="userSpaceOnUse">
<stop offset="0.1875" stop-color="#929BFF" stop-opacity="0"/>
<stop offset="0.403846" stop-color="#929BFF" stop-opacity="0.822115"/>
<stop offset="0.918269" stop-color="#585D99" stop-opacity="0"/>
</linearGradient>
<linearGradient id="paint19_linear_10561_360" x1="421.525" y1="-156.346" x2="421.525" y2="892.018" gradientUnits="userSpaceOnUse">
<stop offset="0.1875" stop-color="#929BFF" stop-opacity="0"/>
<stop offset="0.403846" stop-color="#929BFF" stop-opacity="0.822115"/>
<stop offset="0.918269" stop-color="#585D99" stop-opacity="0"/>
</linearGradient>
<linearGradient id="paint20_linear_10561_360" x1="424.243" y1="-162.602" x2="424.243" y2="896.18" gradientUnits="userSpaceOnUse">
<stop offset="0.1875" stop-color="#929BFF" stop-opacity="0"/>
<stop offset="0.403846" stop-color="#929BFF" stop-opacity="0.822115"/>
<stop offset="0.918269" stop-color="#585D99" stop-opacity="0"/>
</linearGradient>
<linearGradient id="paint21_linear_10561_360" x1="426.86" y1="-169.06" x2="426.86" y2="900.911" gradientUnits="userSpaceOnUse">
<stop offset="0.1875" stop-color="#929BFF" stop-opacity="0"/>
<stop offset="0.403846" stop-color="#929BFF" stop-opacity="0.822115"/>
<stop offset="0.918269" stop-color="#585D99" stop-opacity="0"/>
</linearGradient>
<linearGradient id="paint22_linear_10561_360" x1="429.395" y1="-175.768" x2="429.395" y2="905.356" gradientUnits="userSpaceOnUse">
<stop offset="0.1875" stop-color="#929BFF" stop-opacity="0"/>
<stop offset="0.403846" stop-color="#929BFF" stop-opacity="0.822115"/>
<stop offset="0.918269" stop-color="#585D99" stop-opacity="0"/>
</linearGradient>
<linearGradient id="paint23_linear_10561_360" x1="431.848" y1="-182.661" x2="431.848" y2="909.613" gradientUnits="userSpaceOnUse">
<stop offset="0.1875" stop-color="#929BFF" stop-opacity="0"/>
<stop offset="0.403846" stop-color="#929BFF" stop-opacity="0.822115"/>
<stop offset="0.918269" stop-color="#585D99" stop-opacity="0"/>
</linearGradient>
<linearGradient id="paint24_linear_10561_360" x1="429.856" y1="-178.783" x2="429.856" y2="904.032" gradientUnits="userSpaceOnUse">
<stop offset="0.1875" stop-color="#929BFF" stop-opacity="0"/>
<stop offset="0.403846" stop-color="#929BFF" stop-opacity="0.822115"/>
<stop offset="0.918269" stop-color="#585D99" stop-opacity="0"/>
</linearGradient>
<linearGradient id="paint25_linear_10561_360" x1="427.874" y1="-174.999" x2="427.874" y2="897.884" gradientUnits="userSpaceOnUse">
<stop offset="0.1875" stop-color="#929BFF" stop-opacity="0"/>
<stop offset="0.403846" stop-color="#929BFF" stop-opacity="0.822115"/>
<stop offset="0.918269" stop-color="#585D99" stop-opacity="0"/>
</linearGradient>
<linearGradient id="paint26_linear_10561_360" x1="425.802" y1="-171.121" x2="425.802" y2="892.208" gradientUnits="userSpaceOnUse">
<stop offset="0.1875" stop-color="#929BFF" stop-opacity="0"/>
<stop offset="0.403846" stop-color="#929BFF" stop-opacity="0.822115"/>
<stop offset="0.918269" stop-color="#585D99" stop-opacity="0"/>
</linearGradient>
<linearGradient id="paint27_linear_10561_360" x1="423.623" y1="-167.249" x2="423.623" y2="886.154" gradientUnits="userSpaceOnUse">
<stop offset="0.1875" stop-color="#929BFF" stop-opacity="0"/>
<stop offset="0.403846" stop-color="#929BFF" stop-opacity="0.822115"/>
<stop offset="0.918269" stop-color="#585D99" stop-opacity="0"/>
</linearGradient>
<linearGradient id="paint28_linear_10561_360" x1="421.549" y1="-163.495" x2="421.549" y2="880.194" gradientUnits="userSpaceOnUse">
<stop offset="0.1875" stop-color="#929BFF" stop-opacity="0"/>
<stop offset="0.403846" stop-color="#929BFF" stop-opacity="0.822115"/>
<stop offset="0.918269" stop-color="#585D99" stop-opacity="0"/>
</linearGradient>
<linearGradient id="paint29_linear_10561_360" x1="419.432" y1="-159.674" x2="419.432" y2="874.613" gradientUnits="userSpaceOnUse">
<stop offset="0.1875" stop-color="#929BFF" stop-opacity="0"/>
<stop offset="0.403846" stop-color="#929BFF" stop-opacity="0.822115"/>
<stop offset="0.918269" stop-color="#585D99" stop-opacity="0"/>
</linearGradient>
<linearGradient id="paint30_linear_10561_360" x1="417.45" y1="-155.981" x2="417.45" y2="868.748" gradientUnits="userSpaceOnUse">
<stop offset="0.1875" stop-color="#929BFF" stop-opacity="0"/>
<stop offset="0.403846" stop-color="#929BFF" stop-opacity="0.822115"/>
<stop offset="0.918269" stop-color="#585D99" stop-opacity="0"/>
</linearGradient>
<linearGradient id="paint31_linear_10561_360" x1="415.288" y1="-152.233" x2="415.288" y2="862.979" gradientUnits="userSpaceOnUse">
<stop offset="0.1875" stop-color="#929BFF" stop-opacity="0"/>
<stop offset="0.403846" stop-color="#929BFF" stop-opacity="0.822115"/>
<stop offset="0.918269" stop-color="#585D99" stop-opacity="0"/>
</linearGradient>
<linearGradient id="paint32_linear_10561_360" x1="413.246" y1="-148.528" x2="413.246" y2="857.019" gradientUnits="userSpaceOnUse">
<stop offset="0.1875" stop-color="#929BFF" stop-opacity="0"/>
<stop offset="0.403846" stop-color="#929BFF" stop-opacity="0.822115"/>
<stop offset="0.918269" stop-color="#585D99" stop-opacity="0"/>
</linearGradient>
<linearGradient id="paint33_linear_10561_360" x1="411.127" y1="-144.967" x2="411.127" y2="851.343" gradientUnits="userSpaceOnUse">
<stop offset="0.1875" stop-color="#929BFF" stop-opacity="0"/>
<stop offset="0.403846" stop-color="#929BFF" stop-opacity="0.822115"/>
<stop offset="0.918269" stop-color="#585D99" stop-opacity="0"/>
</linearGradient>
<linearGradient id="paint34_linear_10561_360" x1="409.099" y1="-141.368" x2="409.099" y2="845.384" gradientUnits="userSpaceOnUse">
<stop offset="0.1875" stop-color="#929BFF" stop-opacity="0"/>
<stop offset="0.403846" stop-color="#929BFF" stop-opacity="0.822115"/>
<stop offset="0.918269" stop-color="#585D99" stop-opacity="0"/>
</linearGradient>
<linearGradient id="paint35_linear_10561_360" x1="406.847" y1="-137.889" x2="406.847" y2="839.519" gradientUnits="userSpaceOnUse">
<stop offset="0.1875" stop-color="#929BFF" stop-opacity="0"/>
<stop offset="0.403846" stop-color="#929BFF" stop-opacity="0.822115"/>
<stop offset="0.918269" stop-color="#585D99" stop-opacity="0"/>
</linearGradient>
<linearGradient id="paint36_linear_10561_360" x1="405.045" y1="-134.423" x2="405.045" y2="833.749" gradientUnits="userSpaceOnUse">
<stop offset="0.1875" stop-color="#929BFF" stop-opacity="0"/>
<stop offset="0.403846" stop-color="#929BFF" stop-opacity="0.822115"/>
<stop offset="0.918269" stop-color="#585D99" stop-opacity="0"/>
</linearGradient>
<linearGradient id="paint37_linear_10561_360" x1="402.838" y1="-131.041" x2="402.838" y2="827.694" gradientUnits="userSpaceOnUse">
<stop offset="0.1875" stop-color="#929BFF" stop-opacity="0"/>
<stop offset="0.403846" stop-color="#929BFF" stop-opacity="0.822115"/>
<stop offset="0.918269" stop-color="#585D99" stop-opacity="0"/>
</linearGradient>
<linearGradient id="paint38_linear_10561_360" x1="400.899" y1="-127.833" x2="400.899" y2="821.925" gradientUnits="userSpaceOnUse">
<stop offset="0.1875" stop-color="#929BFF" stop-opacity="0"/>
<stop offset="0.403846" stop-color="#929BFF" stop-opacity="0.822115"/>
<stop offset="0.918269" stop-color="#585D99" stop-opacity="0"/>
</linearGradient>
<linearGradient id="paint39_linear_10561_360" x1="398.696" y1="-124.66" x2="398.696" y2="816.155" gradientUnits="userSpaceOnUse">
<stop offset="0.1875" stop-color="#929BFF" stop-opacity="0"/>
<stop offset="0.403846" stop-color="#929BFF" stop-opacity="0.822115"/>
<stop offset="0.918269" stop-color="#585D99" stop-opacity="0"/>
</linearGradient>
<linearGradient id="paint40_linear_10561_360" x1="396.517" y1="-121.641" x2="396.517" y2="810.289" gradientUnits="userSpaceOnUse">
<stop offset="0.1875" stop-color="#929BFF" stop-opacity="0"/>
<stop offset="0.403846" stop-color="#929BFF" stop-opacity="0.822115"/>
<stop offset="0.918269" stop-color="#585D99" stop-opacity="0"/>
</linearGradient>
<linearGradient id="paint41_linear_10561_360" x1="394.49" y1="-118.634" x2="394.49" y2="804.425" gradientUnits="userSpaceOnUse">
<stop offset="0.1875" stop-color="#929BFF" stop-opacity="0"/>
<stop offset="0.403846" stop-color="#929BFF" stop-opacity="0.822115"/>
<stop offset="0.918269" stop-color="#585D99" stop-opacity="0"/>
</linearGradient>
<linearGradient id="paint42_linear_10561_360" x1="392.416" y1="-115.709" x2="392.416" y2="798.56" gradientUnits="userSpaceOnUse">
<stop offset="0.1875" stop-color="#929BFF" stop-opacity="0"/>
<stop offset="0.403846" stop-color="#929BFF" stop-opacity="0.822115"/>
<stop offset="0.918269" stop-color="#585D99" stop-opacity="0"/>
</linearGradient>
<linearGradient id="paint43_linear_10561_360" x1="390.436" y1="-112.994" x2="390.436" y2="792.317" gradientUnits="userSpaceOnUse">
<stop offset="0.1875" stop-color="#929BFF" stop-opacity="0"/>
<stop offset="0.403846" stop-color="#929BFF" stop-opacity="0.822115"/>
<stop offset="0.918269" stop-color="#585D99" stop-opacity="0"/>
</linearGradient>
<linearGradient id="paint44_linear_10561_360" x1="388.274" y1="-110.233" x2="388.274" y2="786.925" gradientUnits="userSpaceOnUse">
<stop offset="0.1875" stop-color="#929BFF" stop-opacity="0"/>
<stop offset="0.403846" stop-color="#929BFF" stop-opacity="0.822115"/>
<stop offset="0.918269" stop-color="#585D99" stop-opacity="0"/>
</linearGradient>
<linearGradient id="paint45_linear_10561_360" x1="386.246" y1="-107.713" x2="386.246" y2="780.777" gradientUnits="userSpaceOnUse">
<stop offset="0.1875" stop-color="#929BFF" stop-opacity="0"/>
<stop offset="0.403846" stop-color="#929BFF" stop-opacity="0.822115"/>
<stop offset="0.918269" stop-color="#585D99" stop-opacity="0"/>
</linearGradient>
<linearGradient id="paint46_linear_10561_360" x1="384.131" y1="-105.152" x2="384.131" y2="775.007" gradientUnits="userSpaceOnUse">
<stop offset="0.1875" stop-color="#929BFF" stop-opacity="0"/>
<stop offset="0.403846" stop-color="#929BFF" stop-opacity="0.822115"/>
<stop offset="0.918269" stop-color="#585D99" stop-opacity="0"/>
</linearGradient>
</defs>
</svg>
