<svg width="1080" height="757" viewBox="0 0 1080 757" fill="none" xmlns="http://www.w3.org/2000/svg">
<mask id="mask0_10561_194" style="mask-type:luminance" maskUnits="userSpaceOnUse" x="0" y="0" width="1080" height="757">
<path d="M0.5 0.5V756.25H1079.5V0.5H0.5Z" fill="white" stroke="white"/>
</mask>
<g mask="url(#mask0_10561_194)">
<path d="M1211.02 -23.6487C1176.73 -60.9186 1114.45 -62.9051 1077.73 -27.9054C1039.39 8.70236 1033 71.891 997.272 111.337C962.982 149.174 908.802 157.12 859.752 152.958C810.702 148.796 762.372 134.701 713.232 137.255C664.092 139.809 611.172 164.404 592.722 213.214C576.792 255.497 590.382 302.794 598.302 347.443C606.132 392.091 604.512 446.482 569.682 472.874C528.732 503.995 476.892 477.225 432.252 474.577C356.472 470.225 280.422 507.022 238.572 574.373C195.822 643.048 192.582 737.358 230.472 808.776" stroke="url(#paint0_linear_10561_194)" stroke-width="2" stroke-miterlimit="10"/>
<path d="M1201.03 -30.5544C1166.2 -66.2162 1104.64 -67.4459 1067.92 -32.8246C1037.95 -4.63568 1026.7 39.2558 1006.63 76.0528C1000.87 86.5527 994.483 96.485 986.743 105.282C952.993 143.404 900.973 153.147 854.263 151.255C822.313 149.93 790.903 144.255 759.493 142.079C744.913 141.039 730.423 140.85 715.753 142.363C697.123 144.255 677.683 149.552 659.593 158.16C632.593 171.025 609.013 190.984 597.313 219.173C594.253 226.457 592.183 233.835 590.743 241.403C584.173 276.213 592.903 314.051 598.483 350.564C599.383 356.334 600.103 362.293 600.733 368.347C604.423 408.739 600.283 452.252 571.753 475.806C566.803 479.873 561.763 482.995 556.453 485.36C536.383 494.535 514.153 493.117 491.563 489.711C473.473 486.968 455.113 482.806 437.743 481.955C433.513 481.765 429.283 481.671 425.053 481.671C402.103 481.765 379.243 485.265 357.463 492.171C311.743 506.833 270.883 537.008 243.883 579.67C235.603 592.724 228.763 606.818 223.453 621.48C200.953 683.155 204.733 755.709 235.423 813.127" stroke="url(#paint1_linear_10561_194)" stroke-width="2" stroke-miterlimit="10"/>
<path d="M1190.95 -37.46C1155.67 -71.4192 1094.83 -71.9868 1058.02 -37.7438C1027.96 -9.93325 1015.99 33.2961 995.833 69.9985C990.073 80.4038 983.773 90.3361 976.123 99.2279C943.003 137.728 892.963 149.173 848.593 149.552C818.263 149.741 788.653 145.863 759.223 145.106C745.543 144.728 731.953 145.201 718.093 147.282C700.543 149.93 682.093 155.984 664.363 164.971C637.993 178.497 614.053 197.795 601.633 224.943C598.393 231.943 596.053 239.132 594.433 246.416C586.693 280.091 593.713 317.172 598.483 353.591C599.203 359.361 599.923 365.32 600.373 371.374C603.523 411.766 600.463 454.806 573.463 478.833C568.873 482.995 564.013 486.211 558.973 488.765C539.893 498.603 518.473 498.224 496.423 495.86C478.693 493.873 460.333 490.184 442.963 489.427C438.733 489.238 434.503 489.143 430.273 489.143C407.413 489.238 384.643 492.36 362.863 499.076C317.233 513.076 276.193 542.873 249.013 585.156C240.643 598.115 233.803 612.021 228.403 626.683C205.633 688.074 209.323 760.533 240.193 817.668" stroke="url(#paint2_linear_10561_194)" stroke-width="2" stroke-miterlimit="10"/>
<path d="M1180.87 -44.3647C1145.05 -76.6211 1085.02 -76.432 1048.12 -42.662C1017.97 -15.1352 1005.19 27.3374 985.123 63.8506C979.363 74.2559 973.063 84.1882 965.593 93.08C933.103 131.863 885.133 145.107 843.103 147.755C814.393 149.458 786.583 147.377 759.133 148.134C746.353 148.417 733.663 149.553 720.703 152.296C704.233 155.796 686.683 162.512 669.403 171.877C643.573 185.971 619.453 204.606 606.313 230.809C602.893 237.525 600.373 244.43 598.483 251.43C589.573 283.97 594.973 320.294 598.843 356.618C599.473 362.388 600.013 368.253 600.373 374.307C602.893 414.604 600.913 457.171 575.623 481.766C571.303 486.022 566.713 489.333 562.033 492.076C544.033 502.482 523.423 503.333 501.733 501.82C484.363 500.685 466.003 497.374 448.723 496.712C444.493 496.522 440.263 496.522 436.123 496.522C413.263 496.617 390.583 499.455 368.893 505.793C323.263 519.13 282.043 548.549 254.773 590.359C246.403 603.224 239.383 617.035 233.983 631.602C211.033 692.615 214.633 765.074 245.503 822.019" stroke="url(#paint3_linear_10561_194)" stroke-width="2" stroke-miterlimit="10"/>
<path d="M1170.79 -51.2704C1134.52 -81.8242 1075.21 -80.9728 1038.13 -47.5812C1007.89 -20.3382 994.391 21.3776 974.231 57.7962C968.471 68.2015 962.261 78.0393 954.881 87.0257C922.931 126.093 877.121 141.133 837.431 146.052C810.251 149.268 784.241 149.079 758.861 151.16C746.981 152.106 735.281 153.809 723.041 157.214C707.561 161.471 691.001 168.944 674.081 178.687C648.791 193.349 624.401 211.416 610.631 236.578C607.031 243.105 604.331 249.727 602.171 256.443C592.091 287.848 595.781 323.51 598.841 359.645C599.381 365.32 599.741 371.185 600.011 377.239C601.901 417.536 601.091 459.536 577.331 484.698C573.281 488.954 568.961 492.549 564.551 495.387C547.541 506.36 527.741 508.346 506.591 507.873C489.671 507.495 471.221 504.657 453.941 504.184C449.711 504.089 445.481 503.995 441.341 503.995C418.571 504.184 395.981 506.549 374.201 512.603C328.571 525.278 287.261 554.224 259.811 595.751C251.351 608.521 244.331 622.237 238.841 636.71C215.621 697.439 219.221 769.709 250.181 826.465" stroke="url(#paint4_linear_10561_194)" stroke-width="2" stroke-miterlimit="10"/>
<path d="M1160.71 -58.1758C1123.9 -87.1215 1065.4 -85.4188 1028.23 -52.5002C997.903 -25.6356 983.593 15.4181 963.433 51.6475C957.673 61.9583 951.463 71.796 944.263 80.877C912.943 120.323 869.113 137.16 831.763 144.255C806.203 149.079 781.993 150.593 758.503 154.187C747.523 155.795 736.723 158.16 725.383 162.228C710.983 167.336 695.413 175.471 678.853 185.592C654.193 200.822 629.533 218.322 614.953 242.443C611.173 248.686 608.203 255.024 605.773 261.457C594.523 291.727 596.503 326.632 598.753 362.672C599.113 368.347 599.383 374.212 599.653 380.172C600.913 420.374 601.183 461.901 579.043 487.536C575.263 491.887 571.303 495.576 567.073 498.603C551.053 510.143 532.153 513.265 511.363 513.738C494.803 514.116 476.353 511.752 459.073 511.373C454.843 511.279 450.703 511.279 446.473 511.279C423.793 511.468 401.203 513.549 379.513 519.224C333.973 531.238 292.483 559.805 264.763 600.953C256.213 613.629 249.193 627.251 243.613 641.629C220.123 702.074 223.723 774.249 254.773 830.722" stroke="url(#paint5_linear_10561_194)" stroke-width="2" stroke-miterlimit="10"/>
<path d="M1150.72 -65.0803C1113.46 -92.3233 1055.68 -89.9585 1018.42 -57.4182C987.915 -30.8374 972.885 9.45956 952.725 45.5944C946.965 55.9051 940.845 65.7428 933.735 74.8238C903.045 114.553 861.285 133.188 826.275 142.458C802.335 148.891 780.015 152.201 758.415 157.12C748.335 159.485 738.435 162.418 727.995 167.053C714.675 173.012 700.005 181.809 683.895 192.404C659.775 208.296 634.935 225.133 619.635 248.214C615.675 254.174 612.525 260.322 609.825 266.471C597.405 295.606 597.675 329.849 599.025 365.605C599.205 371.281 599.475 377.051 599.565 383.01C600.285 423.118 601.635 464.172 581.115 490.374C577.605 494.82 573.915 498.604 569.955 501.82C554.925 514.023 536.835 518.279 516.585 519.698C500.385 520.833 482.025 518.941 464.745 518.752C460.515 518.658 456.375 518.658 452.235 518.752C429.645 518.941 407.145 520.644 385.455 526.036C339.915 537.387 298.245 565.576 270.435 606.346C261.885 618.927 254.685 632.454 249.105 646.738C225.435 706.805 228.945 778.98 260.085 835.168" stroke="url(#paint6_linear_10561_194)" stroke-width="2" stroke-miterlimit="10"/>
<path d="M1140.64 -72.0805C1102.84 -97.6208 1045.78 -94.4992 1008.52 -62.4319C977.925 -36.2295 962.175 3.4053 941.925 39.3509C936.165 49.567 930.045 59.4994 923.115 68.5804C892.965 108.688 853.365 129.026 820.605 140.566C798.285 148.512 777.765 153.62 758.145 160.053C748.965 163.08 739.965 166.674 730.335 171.971C718.095 178.687 704.415 188.241 688.665 199.214C665.085 215.674 639.975 231.944 624.045 253.984C619.905 259.66 616.485 265.525 613.605 271.484C599.925 299.484 598.575 332.97 599.115 368.632C599.205 374.213 599.295 380.078 599.295 385.942C599.385 426.05 601.815 466.442 582.915 493.306C579.675 497.847 576.255 501.725 572.565 505.13C558.615 517.901 541.335 523.292 521.445 525.657C505.605 527.549 487.245 526.13 469.965 526.036C465.735 526.036 461.595 526.036 457.455 526.036C434.865 526.225 412.455 527.644 390.855 532.752C345.315 543.441 303.555 571.251 275.565 611.643C266.925 624.035 259.725 637.562 253.965 651.751C230.025 711.534 233.535 783.614 264.765 839.519" stroke="url(#paint7_linear_10561_194)" stroke-width="2" stroke-miterlimit="10"/>
<path d="M1130.56 -78.9866C1092.31 -102.919 1035.97 -99.0404 998.533 -67.3515C967.843 -41.4328 951.283 -2.55481 931.033 33.2016C925.273 43.4178 919.243 53.3501 912.493 62.5257C882.973 102.917 845.443 125.052 815.023 138.863C794.323 148.322 775.693 155.228 757.873 163.079C749.683 166.673 741.493 171.025 732.763 176.89C721.603 184.457 708.823 194.673 693.433 206.024C670.393 223.051 645.103 238.754 628.363 259.754C624.043 265.24 620.443 270.727 617.293 276.402C602.443 303.361 599.383 335.996 599.113 371.563C599.023 377.144 599.023 382.915 599.023 388.78C598.573 428.793 601.993 468.711 584.803 496.143C581.923 500.779 578.683 504.846 575.263 508.346C562.303 521.684 545.833 528.211 526.483 531.616C511.003 534.265 492.643 533.319 475.363 533.319C471.133 533.319 466.993 533.319 462.943 533.413C440.443 533.603 418.123 534.643 396.433 539.467C350.983 549.589 309.043 576.926 280.783 616.845C272.053 629.142 264.763 642.575 259.003 656.669C234.793 716.168 238.303 788.06 269.533 843.775" stroke="url(#paint8_linear_10561_194)" stroke-width="2" stroke-miterlimit="10"/>
<path d="M1120.48 -85.8917C1081.69 -108.121 1026.16 -103.486 988.63 -72.2702C957.85 -46.7299 940.48 -8.51405 920.23 27.1478C914.47 37.3639 908.44 47.2017 901.87 56.4719C872.981 97.1472 837.521 121.079 809.351 137.16C790.181 148.133 773.531 156.836 757.601 166.106C750.311 170.363 743.021 175.282 735.191 181.903C725.111 190.322 713.321 201.2 698.291 212.93C675.881 230.524 650.231 245.659 632.861 265.524C628.361 270.727 624.491 276.024 621.161 281.416C605.051 307.24 600.461 339.213 599.291 374.591C599.111 380.172 599.021 385.847 598.841 391.807C597.761 431.82 602.351 471.171 586.691 499.171C584.081 503.9 581.201 508.062 577.961 511.752C565.991 525.657 550.331 533.319 531.521 537.765C516.401 541.265 498.041 540.697 480.761 540.886C476.621 540.886 472.391 540.981 468.341 540.981C445.931 541.265 423.611 541.927 402.011 546.373C356.561 555.832 314.441 582.697 286.091 622.332C277.361 634.534 269.981 647.872 264.131 661.872C239.651 720.993 243.161 792.884 274.481 848.316" stroke="url(#paint9_linear_10561_194)" stroke-width="2" stroke-miterlimit="10"/>
<path d="M1110.49 -92.7972C1071.25 -113.324 1016.44 -108.027 978.822 -77.1893C947.952 -51.9327 929.862 -14.4736 909.522 20.9991C903.672 31.1206 897.822 41.0529 891.342 50.3231C862.992 91.3768 829.692 117.012 803.862 135.363C786.312 147.849 771.552 158.255 757.512 169.133C751.212 174.052 744.732 179.633 737.712 186.822C728.712 195.997 717.822 207.633 703.242 219.741C681.372 237.997 655.542 252.375 637.452 271.294C632.772 276.213 628.632 281.226 625.032 286.335C607.662 311.023 601.452 342.239 599.382 377.523C599.112 383.009 598.842 388.78 598.572 394.644C596.952 434.563 602.532 473.346 588.582 501.914C586.242 506.738 583.632 510.995 580.662 514.873C569.772 529.346 554.922 538.238 536.472 543.535C521.712 547.792 503.352 547.697 486.162 547.981C482.022 548.075 477.882 548.075 473.832 548.17C451.512 548.454 429.282 548.738 407.682 552.9C362.232 561.697 320.022 588.183 291.492 627.439C282.672 639.547 275.202 652.696 269.352 666.696C244.692 725.533 248.112 797.33 279.522 852.478" stroke="url(#paint10_linear_10561_194)" stroke-width="2" stroke-miterlimit="10"/>
<path d="M1100.41 -99.7016C1060.63 -118.62 1006.63 -112.472 968.922 -82.1072C937.962 -57.229 919.062 -20.4321 898.722 14.946C892.872 25.0675 887.022 34.9053 880.722 44.27C853.002 85.6075 821.682 112.945 798.282 133.661C782.352 147.756 769.392 159.769 757.242 172.161C751.842 177.647 746.352 183.985 740.142 191.836C732.132 201.863 722.232 214.16 708.102 226.647C686.772 245.471 660.672 259.282 641.862 277.16C637.002 281.795 632.682 286.619 628.812 291.444C610.182 314.997 602.352 345.551 599.472 380.645C599.022 386.132 598.662 391.808 598.392 397.672C596.142 437.591 602.802 475.807 590.472 504.942C588.402 509.766 586.062 514.212 583.362 518.279C573.462 533.32 559.422 543.347 541.512 549.684C527.112 554.698 508.842 555.076 491.562 555.549C487.422 555.644 483.282 555.738 479.232 555.738C456.912 556.022 434.772 556.022 413.172 559.806C367.812 567.941 325.422 594.049 296.712 632.927C287.802 644.94 280.332 657.994 274.392 671.9C249.462 730.453 252.882 802.061 284.382 857.02" stroke="url(#paint11_linear_10561_194)" stroke-width="2" stroke-miterlimit="10"/>
<path d="M1090.33 -106.608C1050.1 -123.824 996.822 -117.013 958.932 -87.027C927.792 -62.4327 908.172 -26.3925 887.832 8.79639C881.982 18.8233 876.222 28.7557 870.012 38.1204C842.922 79.7417 813.672 108.877 792.522 131.863C778.212 147.471 767.142 161.187 756.882 175.187C752.382 181.241 747.792 188.335 742.392 196.754C735.462 207.632 726.552 220.592 712.692 233.457C691.902 252.848 665.532 266.091 646.092 282.929C640.962 287.375 636.462 291.821 632.412 296.456C612.522 318.875 603.072 348.672 599.382 383.671C598.842 389.158 598.392 394.739 597.942 400.604C595.062 440.428 602.802 478.076 592.182 507.873C590.382 512.792 588.312 517.332 585.882 521.589C576.972 537.102 563.832 548.359 546.282 555.643C532.242 561.413 513.972 562.264 496.692 562.832C492.552 562.927 488.412 563.021 484.362 563.116C462.132 563.399 440.082 563.021 418.482 566.616C373.122 574.089 330.552 599.818 301.662 638.318C292.752 650.237 285.192 663.196 279.162 677.007C253.962 735.182 257.382 806.789 288.882 861.464" stroke="url(#paint12_linear_10561_194)" stroke-width="2" stroke-miterlimit="10"/>
<path d="M1080.25 -113.513C1039.48 -129.026 986.922 -121.459 949.032 -91.9457C917.802 -67.6351 897.462 -32.3516 877.032 2.64807C871.182 12.675 865.422 22.5128 859.392 31.9721C832.842 73.9718 805.752 104.809 786.942 130.066C774.162 147.187 765.072 162.512 756.702 178.119C753.102 184.836 749.412 192.592 744.912 201.673C739.062 213.403 731.052 227.024 717.642 240.268C697.482 260.227 670.842 272.902 650.682 288.7C645.372 292.862 640.692 297.118 636.372 301.375C615.222 322.564 604.242 351.699 599.652 386.51C598.932 391.901 598.392 397.577 597.852 403.347C594.342 443.077 603.162 480.252 594.162 510.617C592.632 515.63 590.922 520.265 588.762 524.711C580.842 540.792 568.512 553.278 551.502 561.508C537.912 568.035 519.552 569.359 502.362 570.116C498.222 570.305 494.082 570.4 490.122 570.4C467.982 570.684 445.932 570.021 424.422 573.238C379.062 580.048 336.402 605.4 307.332 643.521C298.332 655.345 290.682 668.21 284.652 682.02C259.182 739.912 262.512 811.425 294.192 865.816" stroke="url(#paint13_linear_10561_194)" stroke-width="2" stroke-miterlimit="10"/>
<path d="M1070.26 -120.419C1029.04 -134.229 977.202 -126 939.222 -96.8647C907.902 -72.9325 886.752 -38.3112 866.322 -3.4061C860.472 6.62083 854.802 16.4586 848.862 25.918C822.942 68.2014 797.922 100.836 781.362 128.363C770.202 146.998 762.822 163.93 756.432 181.241C753.732 188.43 750.942 197.038 747.342 206.687C742.572 219.268 735.552 233.646 722.502 247.173C702.882 267.794 675.972 279.713 655.182 294.564C649.692 298.443 644.742 302.416 640.242 306.483C617.832 326.537 605.232 355.01 599.832 389.631C599.022 395.023 598.302 400.604 597.672 406.374C593.622 446.103 603.432 482.617 596.142 513.549C594.972 518.657 593.442 523.387 591.552 528.022C584.622 544.67 573.102 558.292 556.542 567.467C543.312 574.846 524.952 576.548 507.762 577.4C503.622 577.589 499.482 577.683 495.522 577.778C473.472 578.156 451.512 577.021 429.912 579.954C384.642 586.102 341.802 610.98 312.552 648.723C303.462 660.358 295.812 673.223 289.692 686.939C264.042 744.547 267.282 815.965 299.052 870.073" stroke="url(#paint14_linear_10561_194)" stroke-width="2" stroke-miterlimit="10"/>
<path d="M1060.18 -127.324C1018.42 -139.526 967.392 -130.445 929.322 -101.784C897.912 -78.1351 875.952 -44.2706 855.522 -9.55469C849.672 0.377654 844.002 10.31 838.332 19.864C813.042 62.4311 790.002 96.7687 775.872 126.66C766.332 146.809 760.752 165.349 756.342 184.268C754.542 192.119 752.742 201.389 749.862 211.7C746.172 225.038 740.052 240.173 727.362 254.078C708.282 275.267 681.192 286.618 659.592 300.429C653.922 304.024 648.702 307.713 643.932 311.496C620.262 330.415 606.132 358.131 599.742 392.658C598.752 398.05 597.942 403.631 597.312 409.306C592.632 448.941 603.522 484.981 597.852 516.481C596.952 521.684 595.692 526.603 594.072 531.332C588.132 548.548 577.512 563.305 561.402 573.521C548.532 581.656 530.262 583.832 512.982 584.778C508.842 584.967 504.792 585.156 500.832 585.156C478.872 585.534 457.002 584.116 435.402 586.67C390.132 592.156 347.112 616.656 317.772 654.02C308.682 665.561 300.852 678.331 294.732 691.952C268.812 749.182 272.052 820.505 303.912 874.424" stroke="url(#paint15_linear_10561_194)" stroke-width="2" stroke-miterlimit="10"/>
<path d="M1050.1 -134.229C1007.89 -144.729 957.584 -134.986 919.334 -106.703C887.834 -83.4325 865.154 -50.2301 844.724 -15.6088C838.874 -5.67649 833.294 4.16127 827.714 13.8098C802.964 56.7554 782.084 92.7956 770.204 124.957C762.194 146.619 758.324 166.768 756.074 187.389C755.174 195.808 754.274 205.835 752.294 216.713C749.684 230.902 744.554 246.7 732.224 261.078C713.684 282.834 686.324 293.618 664.094 306.388C658.244 309.794 652.844 313.199 647.804 316.699C622.874 334.388 607.124 361.442 599.924 395.874C598.844 401.171 597.944 406.752 597.134 412.522C591.824 452.157 603.794 487.535 599.744 519.697C599.114 524.9 598.124 530.008 596.774 534.927C591.824 552.71 582.014 568.602 566.354 579.764C553.844 588.656 535.574 591.305 518.384 592.44C514.244 592.724 510.194 592.818 506.234 592.913C484.274 593.291 462.494 591.494 440.984 593.764C395.714 598.588 352.604 622.71 322.994 659.696C313.814 671.142 305.984 683.817 299.774 697.344C273.584 754.29 276.824 825.519 308.774 879.153" stroke="url(#paint16_linear_10561_194)" stroke-width="2" stroke-miterlimit="10"/>
<path d="M1040.02 -141.134C997.271 -149.931 947.771 -139.432 909.431 -111.621C877.752 -88.6347 854.352 -56.189 833.922 -21.7569C828.072 -11.9191 822.492 -1.98679 817.092 7.66178C792.972 50.8911 774.162 88.7286 764.622 123.161C758.232 146.336 756.072 168.187 755.892 190.322C755.802 199.309 755.892 210.092 754.722 221.633C753.192 236.673 748.962 253.133 737.082 267.889C719.172 290.213 691.452 300.429 668.592 312.159C662.562 315.281 656.892 318.402 651.672 321.713C625.392 338.267 608.112 364.659 600.102 398.902C598.842 404.199 597.852 409.685 596.952 415.455C590.922 454.996 604.062 489.901 601.722 522.63C601.362 527.927 600.642 533.13 599.562 538.238C595.602 556.589 586.692 573.711 571.482 585.819C559.332 595.467 541.062 598.589 523.872 599.819C519.732 600.102 515.682 600.292 511.722 600.292C489.852 600.67 468.162 598.589 446.562 600.575C401.382 604.738 358.092 628.481 328.302 665.088C319.032 676.44 311.112 689.021 304.902 702.453C278.442 759.02 281.682 830.249 313.632 883.6" stroke="url(#paint17_linear_10561_194)" stroke-width="2" stroke-miterlimit="10"/>
<path d="M1029.94 -148.04C986.743 -155.229 937.873 -143.972 899.533 -116.54C867.763 -93.932 843.553 -62.1485 823.123 -27.811C817.273 -17.9733 811.783 -8.13553 806.473 1.60762C782.983 45.2153 766.153 84.6609 759.043 121.458C754.273 146.147 753.733 169.701 755.623 193.444C756.343 202.998 757.513 214.538 757.153 226.646C756.703 242.538 753.373 259.659 741.943 274.794C724.573 297.781 696.673 307.24 673.003 318.024C666.793 320.861 660.853 323.699 655.453 326.726C627.913 342.05 609.103 367.78 600.193 401.928C598.843 407.226 597.673 412.712 596.773 418.388C590.203 457.833 604.333 492.171 603.613 525.468C603.523 530.86 603.073 536.157 602.263 541.359C599.293 560.278 591.193 578.535 576.433 591.589C564.643 601.994 546.373 605.589 529.183 607.008C525.043 607.291 520.993 607.48 517.123 607.575C495.343 608.048 473.653 605.494 452.143 607.197C406.963 610.697 363.493 634.061 333.613 670.291C324.343 681.547 316.333 693.939 310.033 707.371C283.393 763.655 286.543 834.789 318.583 887.856" stroke="url(#paint18_linear_10561_194)" stroke-width="2" stroke-miterlimit="10"/>
<path d="M1019.95 -155.04C976.213 -160.527 928.153 -148.608 889.723 -121.554C857.863 -99.2298 832.933 -68.203 812.413 -34.0547C806.473 -24.2169 801.073 -14.3792 795.943 -4.63602C772.993 39.2555 758.323 80.4983 753.463 119.566C750.223 145.768 751.483 171.025 755.443 196.281C757.063 206.497 759.133 218.7 759.673 231.47C760.393 248.213 757.963 265.997 746.803 281.51C729.973 305.064 701.803 313.956 677.503 323.699C671.113 326.253 664.993 328.902 659.323 331.645C630.523 345.739 610.183 370.901 600.373 404.766C598.843 409.968 597.583 415.455 596.593 421.13C589.393 460.576 604.513 494.346 605.593 528.211C605.773 533.697 605.593 539.089 605.053 544.481C602.983 563.872 595.783 583.359 581.563 597.453C570.133 608.71 551.863 612.777 534.763 614.196C530.623 614.575 526.573 614.764 522.703 614.858C501.013 615.331 479.413 612.494 457.903 613.818C412.723 616.656 369.163 639.547 339.013 675.398C329.653 686.561 321.643 698.858 315.163 712.195C288.253 768.195 291.403 839.14 323.533 892.018" stroke="url(#paint19_linear_10561_194)" stroke-width="2" stroke-miterlimit="10"/>
<path d="M1009.87 -161.945C965.683 -165.729 918.343 -153.053 879.733 -126.473C847.783 -104.527 822.043 -74.1623 801.523 -40.2031C795.583 -30.46 790.273 -20.6222 785.233 -10.7844C762.913 33.3908 750.133 76.431 747.793 117.768C746.083 145.484 749.053 172.538 755.173 199.214C757.603 209.997 760.663 222.957 762.013 236.294C763.813 253.794 762.283 272.335 751.573 288.226C735.283 312.348 706.843 320.577 681.913 329.375C675.253 331.645 668.953 334.01 663.103 336.469C633.043 349.334 611.083 373.834 600.373 407.604C598.753 412.806 597.403 418.198 596.233 423.874C588.403 463.225 604.603 496.427 607.303 530.954C607.753 536.535 607.933 542.021 607.573 547.602C606.493 567.562 600.193 588.278 586.333 603.224C575.263 615.237 557.083 619.777 539.893 621.386C535.843 621.764 531.793 621.953 527.923 622.048C506.233 622.521 484.723 619.304 463.213 620.345C418.123 622.615 374.383 645.034 344.053 680.507C334.603 691.574 326.503 703.777 320.023 717.02C292.843 772.641 295.993 843.586 328.213 896.18" stroke="url(#paint20_linear_10561_194)" stroke-width="2" stroke-miterlimit="10"/>
<path d="M999.791 -168.85C955.061 -170.931 908.531 -157.499 869.831 -131.391C837.791 -109.729 811.241 -80.1209 790.721 -46.2563C784.781 -36.5131 779.471 -26.6754 774.611 -16.8376C752.921 27.716 742.211 72.4589 742.121 116.067C742.031 145.296 746.711 174.053 754.811 202.336C758.141 213.782 762.191 227.403 764.351 241.403C767.231 259.755 766.691 278.957 756.341 295.227C740.681 319.916 711.971 327.578 686.231 335.335C679.391 337.416 672.821 339.402 666.701 341.673C635.291 353.308 611.801 377.24 600.281 410.821C598.481 416.023 597.041 421.415 595.871 426.996C587.411 466.347 604.601 498.982 609.101 534.076C609.821 539.752 610.271 545.333 610.181 551.103C610.091 571.63 604.601 593.481 591.281 609.468C580.661 622.238 562.391 627.251 545.201 628.954C541.151 629.332 537.101 629.616 533.231 629.711C511.631 630.184 490.211 626.684 468.701 627.346C423.611 628.954 379.691 650.994 349.271 686.089C339.821 696.967 331.631 709.169 325.061 722.318C297.701 777.655 300.761 848.506 332.981 900.911" stroke="url(#paint21_linear_10561_194)" stroke-width="2" stroke-miterlimit="10"/>
<path d="M989.715 -175.756C944.445 -176.229 898.725 -162.04 859.935 -136.311C827.805 -114.932 800.535 -86.0812 779.925 -52.4059C773.985 -42.7573 768.765 -32.9195 763.995 -22.8926C742.845 21.9448 734.295 68.4849 736.545 114.363C738.075 145.106 744.465 175.66 754.635 205.362C758.775 217.47 763.815 231.659 766.875 246.321C770.835 265.524 771.195 285.388 761.295 302.037C746.175 327.388 717.195 334.388 690.825 341.104C683.805 342.901 677.055 344.604 670.665 346.685C637.995 357.091 612.975 380.361 600.555 413.847C598.665 418.955 597.045 424.347 595.785 429.928C586.785 469.184 604.875 501.346 611.085 537.008C612.075 542.683 612.795 548.548 612.975 554.413C613.785 575.507 609.285 598.494 596.325 615.521C586.065 629.048 567.795 634.534 550.695 636.331C546.645 636.804 542.595 636.993 538.725 637.088C517.215 637.561 495.795 633.683 474.375 634.156C429.285 635.102 385.275 656.764 354.675 691.479C345.135 702.263 336.855 714.371 330.285 727.425C302.655 782.479 305.715 853.235 338.025 905.356" stroke="url(#paint22_linear_10561_194)" stroke-width="2" stroke-miterlimit="10"/>
<path d="M979.721 -182.661C896.021 -180.39 814.661 -132.431 769.211 -58.5536C718.451 24.0267 719.891 120.229 754.541 208.295C766.061 237.714 783.071 278.862 766.241 308.848C747.791 341.672 705.941 343.186 674.621 351.605C635.561 362.199 606.041 390.672 595.691 432.766C584.531 478.266 612.161 513.455 615.851 557.535C617.651 579.197 613.961 603.319 601.541 621.292C589.301 638.981 564.281 643.805 544.391 644.372C522.971 644.94 501.641 640.683 480.131 640.778C421.091 641.156 363.401 677.669 335.591 732.345C307.691 787.02 310.751 857.681 343.151 909.613" stroke="url(#paint23_linear_10561_194)" stroke-width="2" stroke-miterlimit="10"/>
<path d="M987.643 -178.783C944.893 -178.026 902.683 -166.107 865.153 -144.824C828.433 -124.013 796.123 -94.2159 772.993 -57.5135C755.353 -29.6084 743.833 0.188663 738.073 30.9316C732.583 59.9719 732.223 89.5797 736.183 118.809C739.153 140.755 744.643 162.417 752.023 183.795C755.083 192.687 758.503 201.484 762.193 210.281C766.783 221.065 772.093 233.457 776.053 246.322C782.893 268.267 786.223 292.2 775.603 311.402C764.083 332.118 742.843 340.632 721.063 345.929C708.193 349.05 695.143 351.037 683.353 353.875C672.733 356.523 662.743 360.307 653.653 365.321C633.133 376.672 616.843 393.982 607.123 416.969C605.233 421.32 603.613 425.955 602.263 430.685C594.883 456.509 600.373 479.59 607.033 503.144C611.803 519.887 617.113 536.724 618.553 555.17C618.643 555.832 618.643 556.494 618.733 557.157C620.083 578.44 616.483 601.899 604.333 619.399C596.053 631.318 582.103 637.561 567.793 640.494C560.413 642.007 552.853 642.575 545.923 642.575C538.093 642.669 530.263 642.007 522.433 641.156C508.483 639.642 494.713 637.467 480.853 636.994C464.473 636.426 448.183 638.507 432.523 642.859C403.633 650.899 376.633 667.075 355.753 690.061C346.663 699.993 338.833 711.25 332.443 723.358C330.013 728.088 327.763 732.912 325.783 737.831C304.093 791.087 309.493 855.978 340.273 904.032" stroke="url(#paint24_linear_10561_194)" stroke-width="2" stroke-miterlimit="10"/>
<path d="M995.652 -174.999C952.362 -174.62 909.612 -163.553 871.362 -143.026C834.012 -122.877 800.622 -93.4587 776.862 -56.7564C758.772 -28.8512 746.892 1.13501 741.312 32.5401C736.002 61.9588 736.182 91.945 741.042 121.174C744.732 143.12 750.942 164.593 759.042 185.687C762.372 194.485 766.062 203.187 770.022 211.89C774.972 222.674 780.552 234.971 784.782 247.836C791.982 269.687 795.852 294.092 785.142 313.578C773.712 334.483 752.112 343.186 730.332 348.294C717.372 351.321 704.232 353.118 692.352 355.672C681.642 358.037 671.652 361.537 662.382 366.078C641.592 376.483 624.942 392.753 614.412 414.793C612.342 418.956 610.542 423.401 609.012 428.037C600.732 453.104 604.962 476.09 610.902 499.739C615.132 516.576 620.082 533.603 621.432 552.049C621.522 552.711 621.522 553.373 621.522 554.035C622.782 575.414 619.362 599.157 607.122 616.751C598.662 628.954 584.442 635.386 569.772 638.129C562.212 639.548 554.562 640.116 547.452 640.021C539.442 639.927 531.432 639.17 523.512 638.129C509.382 636.332 495.432 633.683 481.392 632.643C464.832 631.413 448.452 632.643 432.612 636.237C403.362 642.859 375.372 657.521 353.502 680.318C344.052 690.156 335.862 701.507 329.202 713.804C326.682 718.534 324.343 723.453 322.273 728.466C299.683 782.574 305.352 849.262 337.302 897.884" stroke="url(#paint25_linear_10561_194)" stroke-width="2" stroke-miterlimit="10"/>
<path d="M1003.66 -171.121C959.922 -171.121 916.542 -160.904 877.572 -141.04C839.502 -121.648 805.212 -92.5132 780.732 -55.8108C762.192 -28.0003 750.042 2.36431 744.552 34.4316C739.422 64.2286 740.232 94.5932 745.902 123.823C750.222 145.768 757.242 166.957 766.062 187.863C769.752 196.565 773.622 205.268 777.852 213.876C783.162 224.66 789.012 236.862 793.512 249.822C801.072 271.578 805.392 296.551 794.772 316.226C783.342 337.226 761.472 346.213 739.602 351.131C726.552 354.064 713.322 355.672 701.352 357.942C690.552 360.023 680.472 363.145 671.202 367.402C650.142 376.956 633.042 391.996 621.702 413.185C619.542 417.253 617.562 421.509 615.852 426.05C606.672 450.36 609.642 473.252 614.862 496.995C618.552 513.927 623.142 531.143 624.312 549.684C624.312 550.346 624.402 551.008 624.402 551.67C625.482 573.143 622.422 597.075 610.002 614.859C601.272 627.345 586.782 633.872 571.842 636.615C564.102 638.034 556.362 638.413 549.072 638.224C540.882 638.034 532.782 637.088 524.772 635.764C510.462 633.588 496.332 630.467 482.202 628.859C465.552 626.967 448.992 627.44 432.882 630.183C403.182 635.291 374.292 648.534 351.432 671.142C341.622 680.885 333.072 692.331 326.142 704.817C323.442 709.642 321.102 714.655 318.942 719.669C295.452 774.722 301.392 843.114 334.512 892.208" stroke="url(#paint26_linear_10561_194)" stroke-width="2" stroke-miterlimit="10"/>
<path d="M1011.67 -167.242C967.39 -167.526 923.56 -158.256 883.78 -139.148C845.08 -120.418 809.71 -91.6618 784.51 -54.9594C765.52 -27.1489 753.01 3.4995 747.79 36.1343C742.84 66.3097 744.19 97.0527 750.76 126.188C755.71 148.133 763.63 169.039 772.99 189.755C776.95 198.363 781.18 206.971 785.59 215.579C791.17 226.362 797.47 238.47 802.15 251.43C810.07 273.092 814.93 298.537 804.22 318.497C792.88 339.591 770.65 348.861 748.78 353.591C735.64 356.429 722.41 357.848 710.26 359.834C699.46 361.631 689.29 364.469 679.84 368.253C658.6 376.861 641.05 390.861 628.9 411.104C626.56 414.982 624.4 419.144 622.51 423.496C612.52 446.955 614.23 469.847 618.64 493.684C621.79 510.711 626.11 528.116 627.1 546.751C627.1 547.414 627.19 548.076 627.19 548.738C628.18 570.4 625.3 594.521 612.88 612.305C603.97 625.075 589.21 631.791 574 634.44C566.17 635.859 558.16 636.142 550.78 635.764C542.5 635.386 534.22 634.251 526.12 632.832C511.63 630.278 497.32 626.683 483.1 624.602C466.27 622.048 449.62 621.67 433.24 623.656C403.09 627.345 373.3 639.075 349.54 661.399C339.28 671.048 330.46 682.588 323.26 695.264C320.47 700.182 317.95 705.196 315.79 710.399C291.49 766.398 297.61 836.397 331.9 886.154" stroke="url(#paint27_linear_10561_194)" stroke-width="2" stroke-miterlimit="10"/>
<path d="M1019.68 -163.458C974.952 -164.121 930.492 -155.702 889.992 -137.256C850.662 -119.189 814.212 -90.8105 788.382 -54.1081C768.942 -26.2975 756.072 4.54004 751.032 37.837C746.262 68.3908 748.152 99.5121 755.622 128.647C761.292 150.593 769.932 171.309 780.012 191.741C784.242 200.254 788.742 208.768 793.512 217.281C799.452 228.065 806.022 240.078 810.972 253.038C819.162 274.605 824.652 300.524 813.942 320.767C802.692 341.956 780.102 351.415 758.232 356.145C745.092 358.888 731.682 360.118 719.442 361.821C708.552 363.334 698.292 365.888 688.752 369.294C667.242 377.05 649.242 389.82 636.372 409.212C633.852 412.901 631.512 416.874 629.532 421.131C618.642 443.833 619.182 466.63 622.782 490.563C625.392 507.684 629.352 525.279 630.252 544.008C630.252 544.67 630.342 545.333 630.342 545.995C631.152 567.751 628.542 592.062 616.032 610.035C606.942 622.994 591.912 629.994 576.342 632.548C568.332 633.872 560.232 634.156 552.672 633.683C544.212 633.21 535.842 631.886 527.562 630.183C512.802 627.251 498.402 623.278 484.002 620.535C466.992 617.413 450.252 616.183 433.602 617.413C403.002 619.589 372.222 629.994 347.562 652.034C336.942 661.588 327.762 673.223 320.292 685.993C317.412 690.912 314.802 696.115 312.462 701.318C287.262 758.168 293.652 829.965 329.112 880.194" stroke="url(#paint28_linear_10561_194)" stroke-width="2" stroke-miterlimit="10"/>
<path d="M1027.69 -159.58C982.421 -160.62 937.511 -153.053 896.201 -135.364C856.151 -118.053 818.801 -90.0534 792.251 -53.1619C772.361 -25.3513 759.221 5.77 754.271 39.6345C749.771 70.5667 752.201 102.066 760.481 131.201C766.781 153.147 776.231 173.579 787.031 193.822C791.531 202.241 796.301 210.66 801.341 219.173C807.641 229.863 814.481 241.971 819.701 254.93C828.251 276.308 834.191 302.794 823.481 323.227C812.321 344.51 789.371 354.253 767.411 358.794C754.181 361.442 740.681 362.483 728.351 363.996C717.461 365.321 707.111 367.402 697.391 370.429C675.701 377.24 657.161 388.969 643.481 407.415C640.871 411.01 638.351 414.793 636.101 418.955C624.401 440.901 623.591 463.604 626.471 487.63C628.541 504.846 632.141 522.63 632.951 541.454C632.951 542.116 633.041 542.779 633.041 543.441C633.761 565.292 631.421 589.886 618.821 607.859C609.461 621.102 594.161 628.197 578.321 630.751C570.131 632.075 561.941 632.17 554.201 631.602C545.561 630.94 537.101 629.521 528.731 627.629C513.791 624.318 499.211 619.872 484.721 616.656C467.621 612.873 450.611 610.886 433.871 611.264C402.911 611.927 371.141 620.913 345.582 642.764C334.512 652.223 325.061 663.953 317.321 676.912C314.351 681.926 311.651 687.129 309.221 692.52C283.121 750.317 289.781 823.816 326.411 874.613" stroke="url(#paint29_linear_10561_194)" stroke-width="2" stroke-miterlimit="10"/>
<path d="M1035.61 -155.797C989.891 -157.216 944.351 -150.5 902.411 -133.473C861.731 -116.825 823.301 -89.2033 796.121 -52.3117C775.781 -24.5011 762.371 6.90397 757.511 41.4307C753.191 72.7412 756.161 104.619 765.251 133.754C772.181 155.7 782.441 175.943 793.961 195.902C798.821 204.227 803.861 212.645 809.081 220.97C815.741 231.659 822.851 243.672 828.251 256.631C837.161 277.915 843.641 304.874 832.931 325.59C821.771 346.969 798.551 356.995 776.591 361.347C763.271 363.995 749.771 364.752 737.261 365.982C726.281 367.022 715.841 368.82 706.121 371.468C684.161 377.428 665.261 387.928 650.771 405.522C647.981 408.927 645.281 412.617 642.941 416.59C630.341 437.684 628.271 460.386 630.431 484.508C631.961 501.818 635.201 519.791 635.921 538.71C635.921 539.372 636.011 540.034 636.011 540.696C636.641 562.642 634.481 587.52 621.791 605.588C612.251 619.115 596.681 626.398 580.481 628.858C572.201 630.088 563.741 630.182 555.911 629.52C547.181 628.763 538.541 627.061 529.991 624.98C514.871 621.29 500.111 616.371 485.441 612.588C468.161 608.142 451.061 605.304 434.051 604.926C402.641 604.169 369.971 611.642 343.421 633.304C331.991 642.669 322.181 654.493 314.171 667.641C311.111 672.749 308.321 678.047 305.801 683.438C278.801 742.181 285.731 817.289 323.531 868.748" stroke="url(#paint30_linear_10561_194)" stroke-width="2" stroke-miterlimit="10"/>
<path d="M1043.62 -151.918C997.361 -153.715 951.281 -147.945 908.621 -131.58C867.221 -115.594 827.801 -88.3507 799.991 -51.4591C779.111 -23.7431 765.431 8.04036 760.841 43.1346C756.701 74.8235 760.211 107.08 770.201 136.215C777.851 158.161 788.831 178.12 801.071 197.89C806.201 206.12 811.511 214.444 817.001 222.768C824.021 233.457 831.401 245.376 837.071 258.43C846.341 279.619 853.271 307.051 842.651 328.051C831.581 349.524 808.091 359.835 785.951 363.997C772.541 366.551 758.951 367.118 746.351 368.064C735.371 368.821 724.841 370.24 714.941 372.51C692.801 377.524 673.361 386.888 658.151 403.631C655.181 406.848 652.301 410.348 649.781 414.226C636.371 434.564 633.041 457.266 634.391 481.482C635.381 498.887 638.261 516.955 638.891 535.968C638.891 536.63 638.891 537.292 638.981 538.049C639.431 560.089 637.631 585.157 624.761 603.413C615.041 617.224 599.111 624.602 582.731 627.062C574.271 628.292 565.721 628.292 557.711 627.44C548.801 626.494 539.981 624.697 531.431 622.427C516.041 618.359 501.191 613.062 486.431 608.711C468.971 603.603 451.781 600.008 434.501 598.778C402.641 596.508 369.071 602.562 341.531 624.035C329.741 633.305 319.571 645.224 311.291 658.562C308.141 663.67 305.261 669.061 302.651 674.548C274.751 734.142 281.951 811.047 320.921 862.979" stroke="url(#paint31_linear_10561_194)" stroke-width="2" stroke-miterlimit="10"/>
<path d="M1051.63 -148.04C1004.92 -150.216 958.303 -145.297 914.833 -129.594C872.803 -114.365 832.393 -87.4054 803.863 -50.5138C782.533 -22.7979 768.493 9.26941 764.083 44.9313C760.123 76.9985 764.263 109.633 775.063 138.674C783.343 160.619 795.133 180.389 808.003 199.876C813.403 208.011 818.983 216.241 824.743 224.47C832.123 235.159 839.773 246.984 845.713 260.037C855.253 281.132 862.813 309.132 852.103 330.321C841.123 351.983 817.273 362.483 795.133 366.55C781.633 369.009 767.953 369.482 755.353 370.05C744.283 370.618 733.663 371.658 723.673 373.455C701.263 377.523 681.373 385.847 665.353 401.739C662.293 404.861 659.233 408.171 656.533 411.86C642.313 431.441 637.633 454.049 638.263 478.36C638.713 495.86 641.323 514.116 641.773 533.224C641.773 533.886 641.773 534.549 641.773 535.305C642.133 557.44 640.513 582.791 627.643 601.048C617.743 615.048 601.543 622.71 584.803 625.075C576.163 626.304 567.523 626.115 559.243 625.169C550.153 624.129 541.243 622.142 532.513 619.683C516.943 615.237 501.913 609.467 487.063 604.548C469.513 598.778 452.143 594.332 434.593 592.345C402.283 588.656 367.723 593.197 339.373 614.386C327.133 623.561 316.693 635.575 308.143 649.102C304.903 654.304 301.933 659.791 299.233 665.372C270.433 725.912 277.993 804.519 318.043 857.019" stroke="url(#paint32_linear_10561_194)" stroke-width="2" stroke-miterlimit="10"/>
<path d="M1059.64 -144.256C1012.39 -146.81 965.235 -142.742 921.045 -127.797C878.295 -113.229 836.895 -86.6484 807.735 -49.6622C785.955 -21.9462 771.555 10.3102 767.325 46.6342C763.545 79.0799 768.225 112.093 779.925 141.133C788.835 163.079 801.525 182.565 815.025 201.863C820.695 209.903 826.545 218.038 832.575 226.268C840.315 236.957 848.325 248.686 854.445 261.74C864.345 282.74 872.355 311.213 861.735 332.686C850.845 354.442 826.635 365.131 804.495 369.104C790.905 371.469 777.225 371.753 764.445 372.037C753.285 372.321 742.665 373.077 732.495 374.496C709.905 377.712 689.475 384.807 672.735 399.847C669.495 402.78 666.255 405.901 663.375 409.59C648.345 428.32 642.315 450.928 642.225 475.333C642.135 492.928 644.385 511.373 644.745 530.576C644.745 531.238 644.745 531.995 644.745 532.657C645.015 554.886 643.665 580.427 630.615 598.873C620.445 613.156 604.065 621.008 586.965 623.278C578.145 624.413 569.325 624.224 560.955 623.183C551.775 621.953 542.685 619.778 533.865 617.129C518.115 612.305 502.995 606.062 487.875 600.67C470.145 594.237 452.685 589.035 434.955 586.292C402.195 581.089 366.734 584.211 337.394 605.21C324.794 614.291 313.905 626.399 305.175 640.115C301.845 645.413 298.784 650.899 295.994 656.575C266.294 718.061 274.124 798.276 315.344 851.343" stroke="url(#paint33_linear_10561_194)" stroke-width="2" stroke-miterlimit="10"/>
<path d="M1067.65 -140.377C1019.95 -143.31 972.252 -140.094 927.252 -125.81C883.872 -111.905 841.392 -85.7968 811.512 -48.7161C789.282 -21.0001 774.612 11.5401 770.472 48.4317C766.872 81.2557 772.092 114.647 784.692 143.688C794.322 165.633 807.732 184.93 821.952 203.944C827.982 211.89 834.102 219.93 840.312 228.16C848.412 238.754 856.692 250.579 863.082 263.632C873.342 284.538 881.892 313.483 871.182 335.24C860.292 357.091 835.812 368.064 813.582 371.848C799.902 374.118 786.132 374.023 773.262 374.213C762.102 374.402 751.302 374.591 741.132 375.631C718.272 377.996 697.392 383.861 679.932 398.05C676.512 400.793 673.182 403.82 670.032 407.32C654.192 425.293 646.902 447.807 646.002 472.306C645.372 489.995 647.262 508.63 647.532 527.927C647.532 528.59 647.532 529.346 647.532 530.008C647.622 552.333 646.542 578.157 633.492 596.602C623.142 611.17 606.402 619.116 589.032 621.291C580.122 622.427 571.122 622.143 562.572 620.913C553.212 619.589 544.032 617.224 535.032 614.386C519.102 609.278 503.802 602.562 488.592 596.508C470.682 589.413 453.042 583.454 435.132 579.859C402.012 573.238 365.563 574.941 335.233 595.657C322.183 604.643 311.023 616.846 302.023 630.751C298.603 636.143 295.453 641.724 292.573 647.399C261.973 709.737 270.072 791.749 312.552 845.384" stroke="url(#paint34_linear_10561_194)" stroke-width="2" stroke-miterlimit="10"/>
<path d="M1075.66 -136.594C1027.42 -139.81 979.182 -137.54 933.462 -124.013C889.452 -110.77 845.892 -85.0404 815.382 -47.9597C792.702 -20.2437 777.672 12.5803 773.802 50.134C770.382 83.3364 776.142 117.106 789.642 146.147C799.902 168.092 814.122 187.106 829.062 205.93C835.362 213.781 841.752 221.822 848.232 229.862C856.692 240.457 865.242 252.186 871.902 265.24C882.522 286.051 891.612 315.469 880.902 337.415C870.102 359.361 845.262 370.618 823.032 374.212C809.262 376.388 795.492 376.293 782.442 376.104C771.192 375.915 760.392 375.915 750.042 376.577C727.002 377.996 705.582 382.82 687.312 396.063C683.712 398.617 680.202 401.55 676.962 404.861C660.312 422.077 651.672 444.495 650.052 469.09C648.882 486.873 650.412 505.697 650.592 525.089C650.592 525.751 650.592 526.508 650.592 527.17C650.592 549.684 649.692 575.602 636.552 594.237C626.022 609.088 609.012 617.223 591.372 619.305C582.282 620.44 573.192 620.061 564.462 618.737C554.922 617.318 545.652 614.764 536.562 611.642C520.362 606.156 504.972 598.967 489.672 592.44C471.672 584.683 453.852 577.872 435.672 573.521C402.102 565.386 364.752 565.67 333.522 586.197C320.112 595.089 308.592 607.386 299.322 621.386C295.722 626.777 292.482 632.453 289.602 638.318C258.102 701.601 266.472 785.317 310.122 839.519" stroke="url(#paint35_linear_10561_194)" stroke-width="2" stroke-miterlimit="10"/>
<path d="M1083.58 -132.715C1034.89 -136.31 986.022 -134.891 939.582 -122.026C894.852 -109.54 850.392 -84.0939 819.162 -47.0131C796.032 -19.3917 780.642 13.8107 776.952 51.9319C773.712 85.5127 780.102 119.661 794.412 148.701C805.302 170.647 820.332 189.471 835.902 208.012C842.472 215.768 849.222 223.714 855.882 231.755C864.702 242.349 873.522 253.984 880.452 267.133C891.342 287.849 900.972 317.74 890.262 339.97C879.552 362.01 854.352 373.551 832.122 377.051C818.262 379.132 804.402 378.848 791.262 378.375C780.012 377.902 769.032 377.618 758.592 377.807C735.282 378.375 713.412 381.97 694.422 394.361C690.732 396.821 687.042 399.564 683.532 402.78C666.072 419.239 656.082 441.564 653.652 466.253C651.852 484.131 653.202 503.144 653.112 522.63C653.112 523.293 653.112 524.049 653.112 524.712C653.022 547.319 652.392 573.522 639.072 592.157C628.362 607.292 610.992 615.522 593.082 617.603C583.812 618.643 574.542 618.17 565.722 616.751C556.092 615.143 546.552 612.4 537.372 609.184C520.992 603.319 505.422 595.657 489.942 588.562C471.762 580.143 453.852 572.576 435.492 567.373C401.472 557.725 363.132 556.59 331.002 576.927C317.142 585.63 305.352 598.116 295.812 612.305C292.122 617.792 288.792 623.562 285.822 629.427C253.422 693.656 262.062 779.074 306.882 833.749" stroke="url(#paint36_linear_10561_194)" stroke-width="2" stroke-miterlimit="10"/>
<path d="M1091.59 -128.838C1042.36 -132.811 993.042 -132.243 945.792 -120.135C900.432 -108.311 854.892 -83.2436 823.032 -46.1628C799.452 -18.5414 783.702 14.8502 780.192 53.6336C777.132 87.5928 784.062 122.119 799.182 151.065C810.792 173.011 826.542 191.551 842.832 209.902C849.672 217.565 856.692 225.416 863.622 233.362C872.802 243.956 881.892 255.497 889.092 268.645C900.342 289.172 910.512 319.631 899.802 342.145C889.182 364.279 863.622 376.009 841.302 379.414C827.352 381.496 813.402 381.023 800.172 380.171C788.832 379.509 777.852 378.752 767.322 378.658C743.742 378.279 721.512 380.739 701.712 392.279C697.842 394.549 693.972 397.103 690.372 400.225C672.102 415.928 660.852 438.157 657.612 462.941C655.272 481.008 656.262 500.116 656.082 519.602C656.082 520.359 656.082 521.021 656.082 521.778C655.812 544.481 655.452 570.872 642.132 589.696C631.152 605.021 613.602 613.534 595.332 615.52C585.972 616.561 576.522 615.993 567.522 614.385C557.712 612.683 548.082 609.75 538.812 606.25C522.252 600.007 506.502 591.967 490.932 584.305C472.572 575.318 454.572 566.899 435.942 560.845C401.472 549.778 362.232 547.129 329.202 567.278C314.982 575.886 302.832 588.467 293.022 602.845C289.242 608.426 285.822 614.196 282.762 620.156C249.462 685.236 258.372 772.357 304.362 827.694" stroke="url(#paint37_linear_10561_194)" stroke-width="2" stroke-miterlimit="10"/>
<path d="M1099.6 -125.053C1049.83 -129.404 999.974 -129.688 952.004 -118.242C905.924 -107.08 859.394 -82.3912 826.904 -45.2158C802.874 -17.5945 786.764 16.0809 783.434 55.4319C780.464 89.7695 788.024 124.675 804.044 153.62C816.284 175.661 832.844 193.823 849.854 211.985C857.054 219.552 864.254 227.309 871.454 235.255C880.994 245.755 890.354 257.295 897.734 270.444C909.254 290.876 919.964 321.902 909.254 344.605C898.634 366.929 872.804 378.848 850.484 382.064C836.444 384.051 822.494 383.388 809.084 382.253C797.654 381.307 786.584 380.267 775.964 379.699C752.204 378.47 729.434 379.794 708.824 390.388C704.774 392.469 700.724 394.929 696.944 397.861C677.864 412.807 665.264 434.942 661.304 459.82C658.424 477.982 659.054 497.185 658.784 516.86C658.784 517.617 658.784 518.279 658.784 519.036C658.424 541.833 658.334 568.508 644.834 587.427C633.674 603.035 615.764 611.643 597.224 613.63C587.684 614.67 578.144 614.008 568.964 612.305C558.974 610.508 549.254 607.386 539.804 603.697C522.974 597.076 507.134 588.562 491.474 580.333C473.024 570.684 454.844 561.414 435.944 554.698C401.024 542.117 360.884 538.049 326.864 557.914C312.284 566.427 299.774 579.103 289.694 593.67C285.824 599.251 282.314 605.211 279.164 611.265C244.964 677.291 254.144 766.115 301.304 821.925" stroke="url(#paint38_linear_10561_194)" stroke-width="2" stroke-miterlimit="10"/>
<path d="M1107.61 -121.174C1057.39 -125.904 1006.99 -127.134 958.299 -116.35C911.589 -105.945 864.069 -81.6343 830.859 -44.3643C806.379 -16.743 789.909 17.2162 786.849 57.2293C784.059 91.9452 792.249 127.229 809.079 156.174C821.949 178.215 839.409 196.188 857.049 214.066C864.519 221.633 872.079 229.201 879.459 237.147C889.359 247.647 898.989 259.187 906.639 272.336C918.519 292.673 929.769 324.173 919.059 347.159C908.529 369.578 882.339 381.78 859.929 384.807C845.889 386.699 831.759 385.848 818.259 384.429C806.829 383.199 795.669 381.875 784.869 380.929C760.839 378.848 737.619 378.943 716.289 388.686C712.059 390.578 707.919 392.942 703.959 395.686C684.069 409.875 670.119 431.915 665.439 456.888C662.019 475.144 662.289 494.536 661.929 514.306C661.929 515.063 661.929 515.725 661.839 516.482C661.389 539.374 661.479 566.333 647.979 585.252C636.639 601.143 618.459 609.941 599.649 611.832C589.929 612.778 580.299 612.116 570.939 610.224C560.859 608.238 550.959 604.927 541.419 601.049C524.409 594.049 508.389 585.062 492.549 576.36C473.919 566.049 455.649 556.022 436.479 548.455C401.199 534.455 359.979 528.968 325.059 548.549C310.029 556.968 297.249 569.738 286.899 584.495C282.939 590.17 279.339 596.13 276.099 602.278C240.999 669.156 250.449 759.777 298.779 816.155" stroke="url(#paint39_linear_10561_194)" stroke-width="2" stroke-miterlimit="10"/>
<path d="M1115.62 -117.391C1064.86 -122.499 1013.92 -124.58 964.513 -114.459C917.173 -104.716 868.573 -80.7835 834.733 -43.5135C809.803 -15.9868 792.973 18.2562 790.093 58.9315C787.483 94.1203 796.213 129.688 813.943 158.633C827.533 180.674 845.713 198.363 864.073 216.052C871.813 223.525 879.643 230.998 887.293 238.849C897.553 249.349 907.453 260.795 915.373 273.943C927.613 294.186 939.313 326.159 928.603 349.334C918.163 371.848 891.613 384.334 869.203 387.266C855.073 389.064 840.853 388.023 827.263 386.32C815.743 384.902 804.493 383.199 793.603 381.78C769.393 378.753 745.633 377.712 723.583 386.604C719.263 388.401 714.853 390.483 710.713 393.226C690.013 406.658 674.713 428.604 669.313 453.671C665.353 472.022 665.263 491.603 664.813 511.468C664.813 512.225 664.813 512.887 664.723 513.644C664.093 536.63 664.543 563.778 650.863 582.886C639.253 599.062 620.893 608.048 601.723 609.845C591.913 610.791 582.013 609.94 572.563 607.954C562.303 605.872 552.313 602.373 542.683 598.305C525.493 590.927 509.293 581.562 493.363 572.197C474.553 561.224 456.103 550.346 436.843 542.022C401.113 526.508 358.993 519.603 323.173 538.995C307.783 547.319 294.643 560.184 284.023 575.13C279.973 580.9 276.283 586.954 272.953 593.197C236.953 661.021 246.763 753.249 296.173 810.29" stroke="url(#paint40_linear_10561_194)" stroke-width="2" stroke-miterlimit="10"/>
<path d="M1123.63 -113.513C1072.42 -118.999 1020.85 -121.932 970.723 -112.567C922.663 -103.486 873.073 -79.9322 838.513 -42.6623C813.043 -15.1355 796.033 19.3912 793.243 60.6341C790.813 96.2013 800.083 132.147 818.713 161.093C832.933 183.133 851.923 200.633 870.913 218.038C878.923 225.416 887.023 232.795 894.943 240.646C905.563 251.146 915.733 262.497 923.923 275.74C936.433 295.889 948.763 328.334 938.053 351.794C927.703 374.402 900.883 387.172 878.383 389.915C864.163 391.618 849.943 390.482 836.173 388.496C824.653 386.793 813.313 384.712 802.333 382.915C777.853 379.037 753.643 376.766 730.873 384.807C726.373 386.415 721.873 388.401 717.553 390.955C696.043 403.631 679.483 425.577 673.273 450.739C668.773 469.184 668.413 488.955 667.783 508.914C667.783 509.671 667.693 510.333 667.693 511.089C666.973 534.17 667.603 561.603 653.833 580.71C642.043 597.075 623.323 606.251 603.883 608.048C593.893 608.994 583.903 608.048 574.273 605.967C563.833 603.697 553.663 600.102 543.943 595.751C526.483 587.994 510.193 578.156 494.083 568.224C475.183 556.589 456.553 544.954 437.023 535.778C400.843 518.752 357.823 510.427 321.013 529.63C305.173 537.86 291.763 550.819 280.873 565.954C276.733 571.724 272.953 577.873 269.533 584.21C232.633 652.98 242.713 746.912 293.293 804.425" stroke="url(#paint41_linear_10561_194)" stroke-width="2" stroke-miterlimit="10"/>
<path d="M1131.64 -109.635C1079.89 -115.5 1027.87 -119.283 976.935 -110.581C928.245 -102.162 877.575 -78.9865 842.385 -41.7166C816.465 -14.1898 799.095 20.6207 796.485 62.4311C794.235 98.3768 804.135 134.701 823.575 163.552C838.425 185.592 858.225 202.808 877.935 220.024C886.305 227.308 894.675 234.686 902.775 242.348C913.755 252.754 924.195 264.105 932.655 277.348C945.525 297.402 958.395 330.321 947.685 354.064C937.335 376.766 910.245 389.725 887.655 392.374C873.345 393.982 859.035 392.658 845.175 390.388C833.565 388.496 822.135 386.036 811.065 383.861C786.405 379.036 761.655 375.631 738.075 382.82C733.395 384.239 728.715 386.131 724.215 388.496C701.895 400.415 683.895 422.266 677.055 447.522C671.925 466.063 671.295 486.022 670.575 506.076C670.575 506.833 670.485 507.589 670.485 508.251C669.675 531.522 670.485 559.048 656.715 578.345C644.745 594.994 625.755 604.359 605.955 606.061C595.785 606.913 585.705 605.967 575.805 603.697C565.275 601.332 554.925 597.548 545.115 593.007C527.475 584.872 511.005 574.562 494.805 564.156C475.725 551.859 457.005 539.467 437.205 529.44C400.575 510.995 356.655 501.157 318.945 520.17C302.745 528.305 288.975 541.359 277.815 556.683C273.585 562.548 269.715 568.791 266.205 575.129C228.405 644.75 238.755 740.479 290.505 798.56" stroke="url(#paint42_linear_10561_194)" stroke-width="2" stroke-miterlimit="10"/>
<path d="M1139.56 -105.851C1087.36 -112.094 1034.71 -116.729 983.053 -108.783C933.643 -101.121 882.073 -78.3241 846.163 -40.8649C819.793 -13.3382 802.063 21.7561 799.633 64.1341C797.563 100.458 808.003 137.16 828.253 166.012C843.733 188.052 864.343 205.079 884.773 222.011C893.413 229.2 902.053 236.484 910.423 244.146C921.763 254.551 932.473 265.903 941.203 279.051C954.343 299.01 967.753 332.402 957.043 356.429C946.783 379.226 919.333 392.469 896.743 394.928C882.343 396.537 868.033 394.928 853.993 392.374C842.293 390.199 830.863 387.456 819.613 384.807C794.683 379.131 769.483 374.496 745.183 380.834C740.323 382.064 735.553 383.861 730.873 386.131C707.743 397.293 688.483 419.05 680.833 444.401C675.163 463.036 674.173 483.184 673.363 503.238C673.363 503.995 673.273 504.752 673.273 505.414C672.283 528.779 673.453 556.589 659.503 575.981C647.353 592.913 628.003 602.372 608.023 603.981C597.673 604.832 587.413 603.791 577.423 601.427C566.713 598.873 556.273 594.9 546.283 590.17C528.463 581.751 511.813 570.967 495.523 559.9C476.263 546.941 457.453 533.697 437.383 522.914C400.393 502.954 355.393 491.698 316.783 510.427C300.223 518.468 286.093 531.616 274.663 547.035C270.253 552.995 266.293 559.238 262.783 565.765C224.083 636.332 234.703 733.763 287.623 792.317" stroke="url(#paint43_linear_10561_194)" stroke-width="2" stroke-miterlimit="10"/>
<path d="M1147.57 -101.972C1094.83 -108.499 1041.73 -114.08 989.262 -106.796C939.222 -99.7965 886.572 -77.3778 850.032 -39.9186C823.212 -12.3919 805.122 22.8916 802.962 66.0263C801.072 102.729 812.052 139.809 833.202 168.661C849.402 190.701 870.732 207.444 891.882 224.187C900.792 231.282 909.792 238.471 918.342 246.038C930.042 256.349 941.022 267.7 950.022 280.943C963.432 300.903 977.472 334.767 966.762 358.983C956.592 381.875 928.782 395.402 906.192 397.767C891.702 399.28 877.302 397.577 863.172 394.645C851.472 392.28 839.862 389.064 828.522 386.132C803.412 379.51 777.672 373.74 752.652 379.226C747.702 380.267 742.662 381.875 737.802 384.05C713.862 394.55 693.252 416.118 684.882 441.563C678.672 460.293 677.322 480.631 676.422 500.779C676.422 501.536 676.332 502.293 676.332 503.049C675.252 526.509 676.602 554.508 662.562 573.995C650.142 591.211 630.612 600.859 610.272 602.373C599.832 603.13 589.392 601.994 579.222 599.535C568.332 596.886 557.802 592.724 547.722 587.805C529.722 579.008 512.982 567.752 496.422 556.211C477.072 542.59 458.082 528.59 437.832 517.049C400.392 495.671 354.492 482.996 314.892 501.441C297.882 509.387 283.482 522.63 271.782 538.238C267.282 544.198 263.232 550.63 259.632 557.157C220.032 628.67 230.922 727.71 285.012 786.925" stroke="url(#paint44_linear_10561_194)" stroke-width="2" stroke-miterlimit="10"/>
<path d="M1155.58 -98.1885C1102.39 -105.094 1048.66 -111.526 995.474 -104.999C944.714 -98.6615 891.074 -76.6211 853.904 -39.162C826.634 -11.7298 808.274 23.932 806.204 67.6343C804.494 104.715 816.104 142.174 838.064 171.025C854.894 193.066 877.124 209.62 898.904 226.079C908.084 233.079 917.354 240.173 926.174 247.741C938.234 258.052 949.484 269.308 958.664 282.551C972.434 302.321 986.924 336.754 976.214 361.253C966.134 384.334 937.964 398.05 915.284 400.226C900.704 401.645 886.214 399.753 871.994 396.537C860.204 393.888 848.594 390.388 837.164 386.983C811.784 379.51 785.594 372.51 759.764 377.145C754.634 378.091 749.504 379.51 744.464 381.496C719.714 391.334 697.754 412.712 688.664 438.253C681.914 457.077 680.294 477.509 679.124 497.847C679.124 498.603 679.034 499.36 679.034 500.117C677.774 523.671 679.484 551.954 665.354 571.535C652.754 589.035 632.954 598.778 612.254 600.292C601.634 601.048 591.104 599.819 580.754 597.17C569.774 594.427 559.064 590.076 548.804 584.873C530.534 575.697 513.704 563.968 497.054 551.86C477.524 537.576 458.354 522.819 437.924 510.428C400.034 487.536 353.234 473.441 312.734 491.698C295.364 499.549 280.604 512.887 268.634 528.684C264.044 534.738 259.904 541.171 256.214 547.792C215.714 620.156 226.874 720.993 282.134 780.777" stroke="url(#paint45_linear_10561_194)" stroke-width="2" stroke-miterlimit="10"/>
<path d="M1163.59 -94.3096C1109.86 -101.593 1055.59 -108.877 1001.68 -103.012C912.672 -93.269 813.852 -35.2831 809.442 69.4322C807.912 106.891 820.062 144.729 842.922 173.485C860.382 195.526 883.422 211.796 905.832 228.066C928.332 244.336 950.922 261.363 967.392 284.255C981.522 303.93 996.552 338.835 985.842 363.524C975.762 386.7 947.322 400.7 924.642 402.686C897.912 405.145 871.632 396.348 845.982 387.929C820.332 379.51 793.782 371.375 767.142 375.159C735.822 379.605 704.502 404.199 692.622 435.132C685.062 454.713 683.172 476.185 682.002 497.374C680.652 521.023 682.542 549.59 668.322 569.171C655.542 586.86 635.382 596.887 614.412 598.306C592.182 599.819 570.132 592.536 550.152 582.225C510.012 561.414 476.622 528.496 438.282 504.185C399.942 479.874 352.242 464.267 310.752 482.334C286.182 493.023 266.652 514.59 252.972 538.901C211.572 612.211 223.002 714.751 279.432 775.007" stroke="url(#paint46_linear_10561_194)" stroke-width="2" stroke-miterlimit="10"/>
</g>
<defs>
<linearGradient id="paint0_linear_10561_194" x1="707.577" y1="-52.9287" x2="707.577" y2="808.776" gradientUnits="userSpaceOnUse">
<stop offset="0.1875" stop-color="#929BFF" stop-opacity="0"/>
<stop offset="0.403846" stop-color="#929BFF" stop-opacity="0.822115"/>
<stop offset="0.918269" stop-color="#585D99" stop-opacity="0"/>
</linearGradient>
<linearGradient id="paint1_linear_10561_194" x1="705.044" y1="-58.062" x2="705.044" y2="813.127" gradientUnits="userSpaceOnUse">
<stop offset="0.1875" stop-color="#929BFF" stop-opacity="0"/>
<stop offset="0.403846" stop-color="#929BFF" stop-opacity="0.822115"/>
<stop offset="0.918269" stop-color="#585D99" stop-opacity="0"/>
</linearGradient>
<linearGradient id="paint2_linear_10561_194" x1="702.359" y1="-63.1787" x2="702.359" y2="817.668" gradientUnits="userSpaceOnUse">
<stop offset="0.1875" stop-color="#929BFF" stop-opacity="0"/>
<stop offset="0.403846" stop-color="#929BFF" stop-opacity="0.822115"/>
<stop offset="0.918269" stop-color="#585D99" stop-opacity="0"/>
</linearGradient>
<linearGradient id="paint3_linear_10561_194" x1="700.018" y1="-68.2783" x2="700.018" y2="822.019" gradientUnits="userSpaceOnUse">
<stop offset="0.1875" stop-color="#929BFF" stop-opacity="0"/>
<stop offset="0.403846" stop-color="#929BFF" stop-opacity="0.822115"/>
<stop offset="0.918269" stop-color="#585D99" stop-opacity="0"/>
</linearGradient>
<linearGradient id="paint4_linear_10561_194" x1="697.299" y1="-73.4355" x2="697.299" y2="826.465" gradientUnits="userSpaceOnUse">
<stop offset="0.1875" stop-color="#929BFF" stop-opacity="0"/>
<stop offset="0.403846" stop-color="#929BFF" stop-opacity="0.822115"/>
<stop offset="0.918269" stop-color="#585D99" stop-opacity="0"/>
</linearGradient>
<linearGradient id="paint5_linear_10561_194" x1="694.539" y1="-78.6196" x2="694.539" y2="830.722" gradientUnits="userSpaceOnUse">
<stop offset="0.1875" stop-color="#929BFF" stop-opacity="0"/>
<stop offset="0.403846" stop-color="#929BFF" stop-opacity="0.822115"/>
<stop offset="0.918269" stop-color="#585D99" stop-opacity="0"/>
</linearGradient>
<linearGradient id="paint6_linear_10561_194" x1="692.203" y1="-83.8257" x2="692.203" y2="835.168" gradientUnits="userSpaceOnUse">
<stop offset="0.1875" stop-color="#929BFF" stop-opacity="0"/>
<stop offset="0.403846" stop-color="#929BFF" stop-opacity="0.822115"/>
<stop offset="0.918269" stop-color="#585D99" stop-opacity="0"/>
</linearGradient>
<linearGradient id="paint7_linear_10561_194" x1="689.486" y1="-89.1245" x2="689.486" y2="839.519" gradientUnits="userSpaceOnUse">
<stop offset="0.1875" stop-color="#929BFF" stop-opacity="0"/>
<stop offset="0.403846" stop-color="#929BFF" stop-opacity="0.822115"/>
<stop offset="0.918269" stop-color="#585D99" stop-opacity="0"/>
</linearGradient>
<linearGradient id="paint8_linear_10561_194" x1="686.853" y1="-94.4326" x2="686.853" y2="843.775" gradientUnits="userSpaceOnUse">
<stop offset="0.1875" stop-color="#929BFF" stop-opacity="0"/>
<stop offset="0.403846" stop-color="#929BFF" stop-opacity="0.822115"/>
<stop offset="0.918269" stop-color="#585D99" stop-opacity="0"/>
</linearGradient>
<linearGradient id="paint9_linear_10561_194" x1="684.269" y1="-99.7075" x2="684.269" y2="848.316" gradientUnits="userSpaceOnUse">
<stop offset="0.1875" stop-color="#929BFF" stop-opacity="0"/>
<stop offset="0.403846" stop-color="#929BFF" stop-opacity="0.822115"/>
<stop offset="0.918269" stop-color="#585D99" stop-opacity="0"/>
</linearGradient>
<linearGradient id="paint10_linear_10561_194" x1="681.797" y1="-105.052" x2="681.797" y2="852.478" gradientUnits="userSpaceOnUse">
<stop offset="0.1875" stop-color="#929BFF" stop-opacity="0"/>
<stop offset="0.403846" stop-color="#929BFF" stop-opacity="0.822115"/>
<stop offset="0.918269" stop-color="#585D99" stop-opacity="0"/>
</linearGradient>
<linearGradient id="paint11_linear_10561_194" x1="679.17" y1="-110.457" x2="679.17" y2="857.02" gradientUnits="userSpaceOnUse">
<stop offset="0.1875" stop-color="#929BFF" stop-opacity="0"/>
<stop offset="0.403846" stop-color="#929BFF" stop-opacity="0.822115"/>
<stop offset="0.918269" stop-color="#585D99" stop-opacity="0"/>
</linearGradient>
<linearGradient id="paint12_linear_10561_194" x1="676.403" y1="-115.899" x2="676.403" y2="861.464" gradientUnits="userSpaceOnUse">
<stop offset="0.1875" stop-color="#929BFF" stop-opacity="0"/>
<stop offset="0.403846" stop-color="#929BFF" stop-opacity="0.822115"/>
<stop offset="0.918269" stop-color="#585D99" stop-opacity="0"/>
</linearGradient>
<linearGradient id="paint13_linear_10561_194" x1="673.986" y1="-121.377" x2="673.986" y2="865.816" gradientUnits="userSpaceOnUse">
<stop offset="0.1875" stop-color="#929BFF" stop-opacity="0"/>
<stop offset="0.403846" stop-color="#929BFF" stop-opacity="0.822115"/>
<stop offset="0.918269" stop-color="#585D99" stop-opacity="0"/>
</linearGradient>
<linearGradient id="paint14_linear_10561_194" x1="671.421" y1="-126.944" x2="671.421" y2="870.073" gradientUnits="userSpaceOnUse">
<stop offset="0.1875" stop-color="#929BFF" stop-opacity="0"/>
<stop offset="0.403846" stop-color="#929BFF" stop-opacity="0.822115"/>
<stop offset="0.918269" stop-color="#585D99" stop-opacity="0"/>
</linearGradient>
<linearGradient id="paint15_linear_10561_194" x1="668.793" y1="-132.612" x2="668.793" y2="874.424" gradientUnits="userSpaceOnUse">
<stop offset="0.1875" stop-color="#929BFF" stop-opacity="0"/>
<stop offset="0.403846" stop-color="#929BFF" stop-opacity="0.822115"/>
<stop offset="0.918269" stop-color="#585D99" stop-opacity="0"/>
</linearGradient>
<linearGradient id="paint16_linear_10561_194" x1="666.167" y1="-138.344" x2="666.167" y2="879.153" gradientUnits="userSpaceOnUse">
<stop offset="0.1875" stop-color="#929BFF" stop-opacity="0"/>
<stop offset="0.403846" stop-color="#929BFF" stop-opacity="0.822115"/>
<stop offset="0.918269" stop-color="#585D99" stop-opacity="0"/>
</linearGradient>
<linearGradient id="paint17_linear_10561_194" x1="663.577" y1="-144.166" x2="663.577" y2="883.6" gradientUnits="userSpaceOnUse">
<stop offset="0.1875" stop-color="#929BFF" stop-opacity="0"/>
<stop offset="0.403846" stop-color="#929BFF" stop-opacity="0.822115"/>
<stop offset="0.918269" stop-color="#585D99" stop-opacity="0"/>
</linearGradient>
<linearGradient id="paint18_linear_10561_194" x1="661.014" y1="-150.158" x2="661.014" y2="887.856" gradientUnits="userSpaceOnUse">
<stop offset="0.1875" stop-color="#929BFF" stop-opacity="0"/>
<stop offset="0.403846" stop-color="#929BFF" stop-opacity="0.822115"/>
<stop offset="0.918269" stop-color="#585D99" stop-opacity="0"/>
</linearGradient>
<linearGradient id="paint19_linear_10561_194" x1="658.475" y1="-156.346" x2="658.475" y2="892.018" gradientUnits="userSpaceOnUse">
<stop offset="0.1875" stop-color="#929BFF" stop-opacity="0"/>
<stop offset="0.403846" stop-color="#929BFF" stop-opacity="0.822115"/>
<stop offset="0.918269" stop-color="#585D99" stop-opacity="0"/>
</linearGradient>
<linearGradient id="paint20_linear_10561_194" x1="655.757" y1="-162.602" x2="655.757" y2="896.18" gradientUnits="userSpaceOnUse">
<stop offset="0.1875" stop-color="#929BFF" stop-opacity="0"/>
<stop offset="0.403846" stop-color="#929BFF" stop-opacity="0.822115"/>
<stop offset="0.918269" stop-color="#585D99" stop-opacity="0"/>
</linearGradient>
<linearGradient id="paint21_linear_10561_194" x1="653.14" y1="-169.06" x2="653.14" y2="900.911" gradientUnits="userSpaceOnUse">
<stop offset="0.1875" stop-color="#929BFF" stop-opacity="0"/>
<stop offset="0.403846" stop-color="#929BFF" stop-opacity="0.822115"/>
<stop offset="0.918269" stop-color="#585D99" stop-opacity="0"/>
</linearGradient>
<linearGradient id="paint22_linear_10561_194" x1="650.605" y1="-175.768" x2="650.605" y2="905.356" gradientUnits="userSpaceOnUse">
<stop offset="0.1875" stop-color="#929BFF" stop-opacity="0"/>
<stop offset="0.403846" stop-color="#929BFF" stop-opacity="0.822115"/>
<stop offset="0.918269" stop-color="#585D99" stop-opacity="0"/>
</linearGradient>
<linearGradient id="paint23_linear_10561_194" x1="648.152" y1="-182.661" x2="648.152" y2="909.613" gradientUnits="userSpaceOnUse">
<stop offset="0.1875" stop-color="#929BFF" stop-opacity="0"/>
<stop offset="0.403846" stop-color="#929BFF" stop-opacity="0.822115"/>
<stop offset="0.918269" stop-color="#585D99" stop-opacity="0"/>
</linearGradient>
<linearGradient id="paint24_linear_10561_194" x1="650.144" y1="-178.783" x2="650.144" y2="904.032" gradientUnits="userSpaceOnUse">
<stop offset="0.1875" stop-color="#929BFF" stop-opacity="0"/>
<stop offset="0.403846" stop-color="#929BFF" stop-opacity="0.822115"/>
<stop offset="0.918269" stop-color="#585D99" stop-opacity="0"/>
</linearGradient>
<linearGradient id="paint25_linear_10561_194" x1="652.126" y1="-174.999" x2="652.126" y2="897.884" gradientUnits="userSpaceOnUse">
<stop offset="0.1875" stop-color="#929BFF" stop-opacity="0"/>
<stop offset="0.403846" stop-color="#929BFF" stop-opacity="0.822115"/>
<stop offset="0.918269" stop-color="#585D99" stop-opacity="0"/>
</linearGradient>
<linearGradient id="paint26_linear_10561_194" x1="654.198" y1="-171.121" x2="654.198" y2="892.208" gradientUnits="userSpaceOnUse">
<stop offset="0.1875" stop-color="#929BFF" stop-opacity="0"/>
<stop offset="0.403846" stop-color="#929BFF" stop-opacity="0.822115"/>
<stop offset="0.918269" stop-color="#585D99" stop-opacity="0"/>
</linearGradient>
<linearGradient id="paint27_linear_10561_194" x1="656.377" y1="-167.249" x2="656.377" y2="886.154" gradientUnits="userSpaceOnUse">
<stop offset="0.1875" stop-color="#929BFF" stop-opacity="0"/>
<stop offset="0.403846" stop-color="#929BFF" stop-opacity="0.822115"/>
<stop offset="0.918269" stop-color="#585D99" stop-opacity="0"/>
</linearGradient>
<linearGradient id="paint28_linear_10561_194" x1="658.451" y1="-163.495" x2="658.451" y2="880.194" gradientUnits="userSpaceOnUse">
<stop offset="0.1875" stop-color="#929BFF" stop-opacity="0"/>
<stop offset="0.403846" stop-color="#929BFF" stop-opacity="0.822115"/>
<stop offset="0.918269" stop-color="#585D99" stop-opacity="0"/>
</linearGradient>
<linearGradient id="paint29_linear_10561_194" x1="660.568" y1="-159.674" x2="660.568" y2="874.613" gradientUnits="userSpaceOnUse">
<stop offset="0.1875" stop-color="#929BFF" stop-opacity="0"/>
<stop offset="0.403846" stop-color="#929BFF" stop-opacity="0.822115"/>
<stop offset="0.918269" stop-color="#585D99" stop-opacity="0"/>
</linearGradient>
<linearGradient id="paint30_linear_10561_194" x1="662.55" y1="-155.981" x2="662.55" y2="868.748" gradientUnits="userSpaceOnUse">
<stop offset="0.1875" stop-color="#929BFF" stop-opacity="0"/>
<stop offset="0.403846" stop-color="#929BFF" stop-opacity="0.822115"/>
<stop offset="0.918269" stop-color="#585D99" stop-opacity="0"/>
</linearGradient>
<linearGradient id="paint31_linear_10561_194" x1="664.712" y1="-152.233" x2="664.712" y2="862.979" gradientUnits="userSpaceOnUse">
<stop offset="0.1875" stop-color="#929BFF" stop-opacity="0"/>
<stop offset="0.403846" stop-color="#929BFF" stop-opacity="0.822115"/>
<stop offset="0.918269" stop-color="#585D99" stop-opacity="0"/>
</linearGradient>
<linearGradient id="paint32_linear_10561_194" x1="666.754" y1="-148.528" x2="666.754" y2="857.019" gradientUnits="userSpaceOnUse">
<stop offset="0.1875" stop-color="#929BFF" stop-opacity="0"/>
<stop offset="0.403846" stop-color="#929BFF" stop-opacity="0.822115"/>
<stop offset="0.918269" stop-color="#585D99" stop-opacity="0"/>
</linearGradient>
<linearGradient id="paint33_linear_10561_194" x1="668.873" y1="-144.967" x2="668.873" y2="851.343" gradientUnits="userSpaceOnUse">
<stop offset="0.1875" stop-color="#929BFF" stop-opacity="0"/>
<stop offset="0.403846" stop-color="#929BFF" stop-opacity="0.822115"/>
<stop offset="0.918269" stop-color="#585D99" stop-opacity="0"/>
</linearGradient>
<linearGradient id="paint34_linear_10561_194" x1="670.901" y1="-141.368" x2="670.901" y2="845.384" gradientUnits="userSpaceOnUse">
<stop offset="0.1875" stop-color="#929BFF" stop-opacity="0"/>
<stop offset="0.403846" stop-color="#929BFF" stop-opacity="0.822115"/>
<stop offset="0.918269" stop-color="#585D99" stop-opacity="0"/>
</linearGradient>
<linearGradient id="paint35_linear_10561_194" x1="673.153" y1="-137.889" x2="673.153" y2="839.519" gradientUnits="userSpaceOnUse">
<stop offset="0.1875" stop-color="#929BFF" stop-opacity="0"/>
<stop offset="0.403846" stop-color="#929BFF" stop-opacity="0.822115"/>
<stop offset="0.918269" stop-color="#585D99" stop-opacity="0"/>
</linearGradient>
<linearGradient id="paint36_linear_10561_194" x1="674.955" y1="-134.423" x2="674.955" y2="833.749" gradientUnits="userSpaceOnUse">
<stop offset="0.1875" stop-color="#929BFF" stop-opacity="0"/>
<stop offset="0.403846" stop-color="#929BFF" stop-opacity="0.822115"/>
<stop offset="0.918269" stop-color="#585D99" stop-opacity="0"/>
</linearGradient>
<linearGradient id="paint37_linear_10561_194" x1="677.162" y1="-131.041" x2="677.162" y2="827.694" gradientUnits="userSpaceOnUse">
<stop offset="0.1875" stop-color="#929BFF" stop-opacity="0"/>
<stop offset="0.403846" stop-color="#929BFF" stop-opacity="0.822115"/>
<stop offset="0.918269" stop-color="#585D99" stop-opacity="0"/>
</linearGradient>
<linearGradient id="paint38_linear_10561_194" x1="679.101" y1="-127.833" x2="679.101" y2="821.925" gradientUnits="userSpaceOnUse">
<stop offset="0.1875" stop-color="#929BFF" stop-opacity="0"/>
<stop offset="0.403846" stop-color="#929BFF" stop-opacity="0.822115"/>
<stop offset="0.918269" stop-color="#585D99" stop-opacity="0"/>
</linearGradient>
<linearGradient id="paint39_linear_10561_194" x1="681.304" y1="-124.66" x2="681.304" y2="816.155" gradientUnits="userSpaceOnUse">
<stop offset="0.1875" stop-color="#929BFF" stop-opacity="0"/>
<stop offset="0.403846" stop-color="#929BFF" stop-opacity="0.822115"/>
<stop offset="0.918269" stop-color="#585D99" stop-opacity="0"/>
</linearGradient>
<linearGradient id="paint40_linear_10561_194" x1="683.483" y1="-121.641" x2="683.483" y2="810.289" gradientUnits="userSpaceOnUse">
<stop offset="0.1875" stop-color="#929BFF" stop-opacity="0"/>
<stop offset="0.403846" stop-color="#929BFF" stop-opacity="0.822115"/>
<stop offset="0.918269" stop-color="#585D99" stop-opacity="0"/>
</linearGradient>
<linearGradient id="paint41_linear_10561_194" x1="685.51" y1="-118.634" x2="685.51" y2="804.425" gradientUnits="userSpaceOnUse">
<stop offset="0.1875" stop-color="#929BFF" stop-opacity="0"/>
<stop offset="0.403846" stop-color="#929BFF" stop-opacity="0.822115"/>
<stop offset="0.918269" stop-color="#585D99" stop-opacity="0"/>
</linearGradient>
<linearGradient id="paint42_linear_10561_194" x1="687.584" y1="-115.709" x2="687.584" y2="798.56" gradientUnits="userSpaceOnUse">
<stop offset="0.1875" stop-color="#929BFF" stop-opacity="0"/>
<stop offset="0.403846" stop-color="#929BFF" stop-opacity="0.822115"/>
<stop offset="0.918269" stop-color="#585D99" stop-opacity="0"/>
</linearGradient>
<linearGradient id="paint43_linear_10561_194" x1="689.564" y1="-112.994" x2="689.564" y2="792.317" gradientUnits="userSpaceOnUse">
<stop offset="0.1875" stop-color="#929BFF" stop-opacity="0"/>
<stop offset="0.403846" stop-color="#929BFF" stop-opacity="0.822115"/>
<stop offset="0.918269" stop-color="#585D99" stop-opacity="0"/>
</linearGradient>
<linearGradient id="paint44_linear_10561_194" x1="691.726" y1="-110.233" x2="691.726" y2="786.925" gradientUnits="userSpaceOnUse">
<stop offset="0.1875" stop-color="#929BFF" stop-opacity="0"/>
<stop offset="0.403846" stop-color="#929BFF" stop-opacity="0.822115"/>
<stop offset="0.918269" stop-color="#585D99" stop-opacity="0"/>
</linearGradient>
<linearGradient id="paint45_linear_10561_194" x1="693.754" y1="-107.713" x2="693.754" y2="780.777" gradientUnits="userSpaceOnUse">
<stop offset="0.1875" stop-color="#929BFF" stop-opacity="0"/>
<stop offset="0.403846" stop-color="#929BFF" stop-opacity="0.822115"/>
<stop offset="0.918269" stop-color="#585D99" stop-opacity="0"/>
</linearGradient>
<linearGradient id="paint46_linear_10561_194" x1="695.869" y1="-105.152" x2="695.869" y2="775.007" gradientUnits="userSpaceOnUse">
<stop offset="0.1875" stop-color="#929BFF" stop-opacity="0"/>
<stop offset="0.403846" stop-color="#929BFF" stop-opacity="0.822115"/>
<stop offset="0.918269" stop-color="#585D99" stop-opacity="0"/>
</linearGradient>
</defs>
</svg>
